<?xml version="1.0" standalone="no"?>
<!DOCTYPE svg PUBLIC "-//W3C//DTD SVG 1.1//EN" "http://www.w3.org/Graphics/SVG/1.1/DTD/svg11.dtd" >
<svg xmlns="http://www.w3.org/2000/svg">
<metadata>
Created by FontPrep 20130207 at Mon Sep 28 13:25:04 2015
 By trlmkb
Copyright (c) 2014 by Julieta Ulanovsky. All rights reserved.
</metadata>
<defs>
<font id="95d90f2cd2aa64bdfee0e9f34c516e71" horiz-adv-x='1024' >
  <font-face 
    font-family="Montserrat-Regular"
    font-weight="400"
    font-stretch="normal"
    units-per-em="2048"
    panose-1="0 0 5 0 0 0 0 0 0 0"
    ascent="1638"
    descent="-410"
    x-height="1090"
    cap-height="1434"
    bbox="-567 -514 2828 1985"
    underline-thickness="102"
    underline-position="-102"
    unicode-range="U+0020-FB02"
  />
<missing-glyph horiz-adv-x="1024" 
d="M102 1239v-1044l349 522zM164 102h696l-348 523zM573 717l349 -522v1044zM512 809l348 522h-696zM0 0v1434h1024v-1434h-1024z" />
    <glyph glyph-name="fi" unicode="fi" horiz-adv-x="1284" 
d="M877 1090h233v-1090h-233v1090zM219 1051v104q0 183 112 279t246 96t220 -49l-9 -205q-104 47 -188 47q-147 0 -147 -145v-127h284v-177h-284v-874h-234v874h-143v177h143zM993 1260q-59 0 -98 40t-39 102t39 102t98 40t99 -40t38 -102q0 -62 -38 -103q-40 -39 -99 -39z
" />
    <glyph glyph-name="fl" unicode="fl" horiz-adv-x="1333" 
d="M1149 1520v-1520h-236v1520h236zM219 1051v133q-1 158 105 258t250 97t225 -46l-6 -205q-70 53 -152 54t-135 -53t-53 -140v-98h286l-2 -174h-284v-877h-234v877h-143l2 174h141z" />
    <glyph glyph-name=".notdef" horiz-adv-x="1024" 
d="M102 1239v-1044l349 522zM164 102h696l-348 523zM573 717l349 -522v1044zM512 809l348 522h-696zM0 0v1434h1024v-1434h-1024z" />
    <glyph glyph-name=".null" horiz-adv-x="0" 
 />
    <glyph glyph-name="nonmarkingreturn" horiz-adv-x="681" 
 />
    <glyph glyph-name="space" unicode=" " horiz-adv-x="528" 
 />
    <glyph glyph-name="exclam" unicode="!" horiz-adv-x="430" 
d="M246 252q55 0 92 -38t37 -96t-37 -98t-92 -38q-55 0 -92 38t-37 98q0 58 37 96t92 38zM133 1415h223v-352l-37 -606h-149l-37 606v352z" />
    <glyph glyph-name="quotedbl" unicode="&#x22;" horiz-adv-x="741" 
d="M618 930h-180v504h180v-504zM303 930h-180v504h180v-504z" />
    <glyph glyph-name="numbersign" unicode="#" horiz-adv-x="1484" 
d="M944 891h-362l-45 -361h364zM1118 891l-45 -361h287l-17 -176h-290l-45 -354h-172l43 354h-363l-45 -354h-172l43 354h-287l17 176h293l43 361h-285l16 176h291l45 367h174l-45 -367h363l45 367h174l-45 -367h284l-14 -176h-293z" />
    <glyph glyph-name="dollar" unicode="$" horiz-adv-x="1271" 
d="M911 393q0 121 -168 187v-353q168 35 168 166zM408 1067q0 -117 155 -178v321q-155 -26 -155 -143zM1180 406q0 -168 -119 -277t-318 -131v-289h-180v287q-295 25 -510 223l105 209q184 -170 405 -203v410q-252 74 -337 166q-36 39 -62 102q-27 63 -27 141q0 162 115 266
t311 128v270h180v-268q238 -23 418 -144l-100 -213q-156 94 -318 123v-379q99 -31 159 -55q186 -77 243 -193q35 -73 35 -173z" />
    <glyph glyph-name="percent" unicode="%" horiz-adv-x="1992" 
d="M1536 713q-106 0 -164 -76t-57 -214q0 -138 57 -213q58 -75 164 -75t165 76q58 76 58 213t-58 213q-59 76 -165 76zM1536 850q176 0 278 -114t101 -314q0 -200 -101 -312q-102 -114 -278 -114t-278 114q-101 114 -101 314q-1 200 101 312q102 114 278 114zM457 1298
q-106 0 -164 -74q-57 -75 -57 -213t57 -214t163 -76t166 77q58 77 58 214t-58 212q-59 74 -165 74zM348 0l1055 1434h225l-1053 -1434h-227zM457 1438q176 0 277 -114q102 -114 102 -314t-102 -314t-277 -114q-176 0 -278 114q-101 115 -101 315q0 199 102 313t277 114z" />
    <glyph glyph-name="ampersand" unicode="&#x26;" horiz-adv-x="1357" 
d="M575 168q152 0 295 139q-244 244 -348 363q-100 -58 -155 -118t-55 -154t74 -162q76 -68 189 -68zM475 1122q0 -109 107 -254q124 66 190 126t66 140t-47 120q-47 42 -129 42t-134 -49t-53 -125zM567 -10q-193 0 -321 114t-129 287q0 139 82 229t227 168
q-137 184 -137 330t103 236q102 90 266 90t265 -84t101 -220t-111 -234q-85 -74 -237 -154q102 -117 301 -312q74 111 129 258l154 -114q-68 -162 -150 -273l233 -227l-120 -123l-224 219q-201 -190 -432 -190z" />
    <glyph glyph-name="quotesingle" unicode="'" horiz-adv-x="425" 
d="M303 930h-180v504h180v-504z" />
    <glyph glyph-name="parenleft" unicode="(" horiz-adv-x="653" 
d="M379 633q0 -510 242 -887h-213q-250 360 -250 887t250 887h213q-242 -377 -242 -887z" />
    <glyph glyph-name="parenright" unicode=")" horiz-adv-x="706" 
d="M707 634q0 -526 -250 -888h-213q242 377 241 887q1 510 -241 887h213q250 -360 250 -886z" />
    <glyph glyph-name="asterisk" unicode="*" horiz-adv-x="712" 
d="M416 1047l2 -211h-123l2 211l-182 -107l-64 113l185 104l-185 100l64 117l182 -108l-2 211h123l-2 -211l182 106l61 -115l-184 -100l184 -104l-61 -115z" />
    <glyph glyph-name="plus" unicode="+" horiz-adv-x="1019" 
d="M948 584h-360v-359h-154v359h-362v161h362v359h154v-359h360v-161z" />
    <glyph glyph-name="comma" unicode="," horiz-adv-x="438" 
d="M221 248q53 0 90 -36t37 -93t-37 -111l-116 -176h-121l78 178q-56 36 -56 100t36 101t89 37z" />
    <glyph glyph-name="hyphen" unicode="-" horiz-adv-x="753" 
d="M629 543h-504v162h504v-162z" />
    <glyph glyph-name="period" unicode="." horiz-adv-x="446" 
d="M223 252q55 0 92 -38t37 -96t-37 -98t-92 -38q-55 0 -92 38t-37 98q0 58 37 96t92 38z" />
    <glyph glyph-name="slash" unicode="/" horiz-adv-x="677" 
d="M158 -240h-201l649 1911h201z" />
    <glyph glyph-name="zero" unicode="0" horiz-adv-x="1415" 
d="M1069 716q0 532 -361 533q-362 0 -362 -532t363 -533q360 0 360 532zM98 716q0 348 158 536t452 188t452 -188t157 -535q0 -347 -158 -535q-157 -188 -451 -188t-452 187t-158 535z" />
    <glyph glyph-name="one" unicode="1" horiz-adv-x="792" 
d="M549 0h-242v1219h-280v215h522v-1434z" />
    <glyph glyph-name="two" unicode="2" horiz-adv-x="1204" 
d="M590 1444q205 0 331 -98t126 -263q0 -188 -263 -471l-372 -395h700v-217h-1020v176l529 567q174 178 174 306q1 86 -63 135t-177 49q-195 0 -391 -180l-96 186q252 205 522 205z" />
    <glyph glyph-name="three" unicode="3" horiz-adv-x="1103" 
d="M1014 444q0 -202 -142 -328t-380 -126q-132 0 -262 42t-222 113l101 197q160 -150 366 -149q141 1 221 67t80 180t-79 173q-79 60 -224 61h-199v141l373 402h-573v215h872v-152l-409 -442l73 -9q184 -16 294 -117t110 -268z" />
    <glyph glyph-name="four" unicode="4" horiz-adv-x="1226" 
d="M745 567v340h226v-340h209v-215h-209v-352h-226v352h-684v180l490 902h233l-465 -867h426z" />
    <glyph glyph-name="five" unicode="5" horiz-adv-x="1181" 
d="M385 1217v-310l197 2q231 0 371 -123q141 -124 141 -328t-144 -335t-387 -131q-127 0 -265 45t-245 119l97 196q180 -152 387 -151q139 1 219 69t80 183t-80 178t-217 63q-203 0 -377 -18v758h872l2 -217h-651z" />
    <glyph glyph-name="six" unicode="6" horiz-adv-x="1259" 
d="M371 470q1 -109 77 -190t216 -81q140 1 218 73q79 72 79 198t-75 196t-211 71q-136 0 -220 -79t-84 -188zM717 1444q236 0 428 -109l-94 -182q-139 90 -330 90t-292 -139t-95 -379q115 203 391 203q213 0 337 -124t124 -339t-137 -345t-367 -130q-272 0 -428 184
t-156 521t168 543t451 206z" />
    <glyph glyph-name="seven" unicode="7" horiz-adv-x="1167" 
d="M76 1016v418h1042v-185l-571 -1249h-256l557 1217h-557l-2 -201h-213z" />
    <glyph glyph-name="eight" unicode="8" horiz-adv-x="1282" 
d="M965 422q0 116 -85 178t-238 62t-238 -62t-85 -178q0 -115 84 -178q84 -64 238 -64t239 64t85 178zM642 1270q-130 0 -203 -56t-73 -155q0 -100 73 -155q73 -54 203 -54t202 54t72 154t-72 156t-202 56zM641 1444q221 0 351 -99t130 -272q0 -102 -56 -182t-157 -125
q133 -43 209 -139t76 -226q0 -190 -148 -301q-148 -110 -404 -110t-403 110q-148 110 -149 297q0 131 79 229t216 140q-223 102 -223 315q0 167 129 265t350 98z" />
    <glyph glyph-name="nine" unicode="9" horiz-adv-x="1259" 
d="M597 696q136 0 220 79t84 189t-77 190q-77 81 -216 81t-218 -73q-79 -72 -79 -198t75 -197t211 -71zM555 -10q-236 0 -428 108l94 183q139 -91 330 -91t292 140t95 379q-115 -203 -391 -203q-215 0 -338 124t-123 339t137 345t367 130q272 0 428 -184t156 -522t-168 -542
q-168 -206 -451 -206z" />
    <glyph glyph-name="colon" unicode=":" horiz-adv-x="434" 
d="M223 252q55 0 92 -38t37 -96t-37 -98t-92 -38q-55 0 -92 38t-37 98q0 58 37 96t92 38zM223 860q55 0 92 -38t37 -96t-37 -97t-92 -39t-92 39t-37 97t37 96t92 38z" />
    <glyph glyph-name="semicolon" unicode=";" horiz-adv-x="442" 
d="M221 248q53 0 90 -36t37 -93t-37 -111l-116 -176h-121l78 178q-56 36 -56 100t36 101t89 37zM223 590q-55 0 -92 39t-37 97t37 96t92 38t92 -38t37 -96t-37 -97t-92 -39z" />
    <glyph glyph-name="less" unicode="&#x3c;" horiz-adv-x="1019" 
d="M948 969l-719 -301l719 -303v-183l-876 381v207l876 381v-182z" />
    <glyph glyph-name="equal" unicode="=" horiz-adv-x="1019" 
d="M948 369h-876v161h876v-161zM948 799h-876v162h876v-162z" />
    <glyph glyph-name="greater" unicode="&#x3e;" horiz-adv-x="1019" 
d="M72 375l719 301l-719 303v182l876 -381v-207l-876 -380v182z" />
    <glyph glyph-name="question" unicode="?" horiz-adv-x="907" 
d="M428 252q55 0 92 -38t37 -96t-37 -98t-92 -38q-55 0 -92 38t-37 98q0 58 37 96t92 38zM432 1423q190 0 301 -89q111 -88 111 -252t-115 -279q-47 -47 -94 -92q-115 -110 -115 -244h-180q0 168 101 276q42 45 83 86q101 101 101 218q-1 86 -57 131t-154 45
q-209 0 -219 -209l-185 2q6 195 119 301t303 106z" />
    <glyph glyph-name="at" unicode="@" horiz-adv-x="1994" 
d="M967 272q117 0 189 82t71 203q1 121 -73 200t-190 79t-187 -79t-71 -198t72 -203t189 -84zM1009 1438q396 0 656 -250t260 -631q0 -229 -108 -370q-109 -140 -283 -140q-205 0 -238 166l-4 41q-125 -182 -352 -182q-193 0 -333 135t-140 343t125 349t326 141
q120 0 210 -54t113 -99v133h221v-715q0 -111 94 -110q78 0 136 101q57 101 57 255q0 311 -203 516t-529 205q-327 0 -549 -211t-222 -512t211 -497t526 -195q225 0 395 120l84 -149q-88 -63 -224 -102t-255 -39q-391 -1 -652 245t-261 619t271 630q272 257 668 257z" />
    <glyph glyph-name="A" unicode="A" horiz-adv-x="1511" 
d="M1022 539l-270 637l-271 -637h541zM1114 324h-723l-137 -324h-252l633 1434h248l626 -1434h-258z" />
    <glyph glyph-name="B" unicode="B" horiz-adv-x="1445" 
d="M430 627v-412h369q143 0 222 54q79 53 79 151t-80 152t-221 55h-369zM430 1219v-379h369q115 0 181 51t64 141q0 90 -64 138q-65 48 -181 49h-369zM188 1434h623q223 0 352 -96t129 -263q0 -121 -68 -206t-184 -113q144 -25 226 -121t82 -242q0 -185 -140 -289t-383 -104
h-637v1434z" />
    <glyph glyph-name="C" unicode="C" horiz-adv-x="1427" 
d="M823 1440q152 0 296.5 -58.5t248.5 -162.5l-141 -177q-78 84 -184.5 133.5t-215.5 49.5q-215 0 -363.5 -146.5t-148.5 -358.5t148.5 -358.5t367.5 -146.5t396 170l143 -160q-111 -109 -258 -172t-297 -63q-315 0 -530 210t-215 517t218 515t535 208z" />
    <glyph glyph-name="D" unicode="D" horiz-adv-x="1587" 
d="M430 1217v-1000h352q211 0 352 140q140 139 140 357t-144 360t-358 143h-342zM188 1434h588q322 0 532 -203t210 -514t-211 -514t-537 -203h-582v1434z" />
    <glyph glyph-name="E" unicode="E" horiz-adv-x="1343" 
d="M1212 1217h-782v-388h700v-217h-700v-395h807v-217h-1049v1434h1024v-217z" />
    <glyph glyph-name="F" unicode="F" horiz-adv-x="1177" 
d="M430 1217v-414h651v-215h-651v-588h-242v1434h963l-2 -217h-719z" />
    <glyph glyph-name="G" unicode="G" horiz-adv-x="1533" 
d="M1169 705h211v-529q-111 -84 -261 -135t-296 -51q-317 0 -535 210t-218 517t221 515t547 208q152 0 298 -54.5t253 -146.5l-138 -178q-176 164 -404 164t-380 -147.5t-152 -361.5t153 -361.5t372 -147.5q166 0 329 98v400z" />
    <glyph glyph-name="H" unicode="H" horiz-adv-x="1619" 
d="M1432 0h-242v594h-760v-594h-242v1434h242v-623h760v623h242v-1434z" />
    <glyph glyph-name="I" unicode="I" horiz-adv-x="618" 
d="M430 0h-242v1434h242v-1434z" />
    <glyph glyph-name="J" unicode="J" horiz-adv-x="1021" 
d="M864 1434v-992q0 -216 -119 -334t-327 -118q-254 0 -422 207l115 184q145 -158 305 -158q98 1 151 59t54 169v766h-496v217h739z" />
    <glyph glyph-name="K" unicode="K" horiz-adv-x="1470" 
d="M430 0h-242v1434h242v-742l684 742h285l-555 -613l592 -821h-291l-471 633l-244 -268v-365z" />
    <glyph glyph-name="L" unicode="L" horiz-adv-x="1093" 
d="M430 219h621v-219h-863v1434h242v-1215z" />
    <glyph glyph-name="M" unicode="M" horiz-adv-x="1894" 
d="M1704 0h-223l-2 1071l-453 -921h-158l-452 921v-1071h-228v1434h287l473 -953l471 953h285v-1434z" />
    <glyph glyph-name="N" unicode="N" horiz-adv-x="1622" 
d="M1432 0h-238l-764 1028v-1028h-242v1434h238l768 -1031v1031h238v-1434z" />
    <glyph glyph-name="O" unicode="O" horiz-adv-x="1658" 
d="M830 1223q-212 -1 -364 -147t-151 -359q0 -213 153 -361q154 -148 364 -149q210 0 360 148q150 147 150 361t-150 360t-362 147zM829 1440q322 0 541 -208t219 -515t-219 -517t-541 -210q-323 0 -541 210t-218 517t218 515t541 208z" />
    <glyph glyph-name="P" unicode="P" horiz-adv-x="1378" 
d="M430 1217v-568h320q346 0 346 289q0 279 -346 279h-320zM188 1434h572q270 0 418 -128t149 -367q0 -239 -148 -373t-419 -134h-330v-432h-242v1434z" />
    <glyph glyph-name="Q" unicode="Q" horiz-adv-x="1689" 
d="M315 717q0 -213 153 -361q154 -148 364 -149q210 0 360 148q150 147 150 361t-150 360t-362 146t-364 -146t-151 -359zM70 717q0 307 219 515t541 208t540 -208q219 -208 219 -515q0 -244 -142 -431t-374 -259q123 -133 237 -133t267 118l96 -170q-178 -158 -389 -157
q-133 -1 -252 79t-205 226q-321 2 -539 211t-218 516z" />
    <glyph glyph-name="R" unicode="R" horiz-adv-x="1480" 
d="M430 649h340q348 0 348 289q0 279 -348 279h-340v-568zM770 432h-340v-432h-242v1434h582q274 0 426 -128t152 -362q0 -172 -77 -290.5t-220 -174.5l321 -479h-274l-262 434q-20 -2 -66 -2z" />
    <glyph glyph-name="S" unicode="S" horiz-adv-x="1273" 
d="M680.5 1444q257.5 0 480.5 -148l-100 -213q-219 133 -420 134q-109 0 -171 -39t-62 -111t57 -122t143 -73.5t186.5 -59.5t186.5 -76t142.5 -125t56.5 -205q0 -188 -150.5 -301t-390.5 -113q-164 0 -317.5 61.5t-268.5 165.5l105 209q109 -100 238.5 -154.5t251.5 -54.5
t192.5 46t70.5 124t-57 128t-143 73.5t-186.5 57.5t-186.5 72t-143.5 122t-57.5 202q0 182 143 291t400.5 109z" />
    <glyph glyph-name="T" unicode="T" horiz-adv-x="1185" 
d="M1167 1217h-454v-1217h-242v1217h-453v217h1149v-217z" />
    <glyph glyph-name="U" unicode="U" horiz-adv-x="1564" 
d="M1407 1434v-840q0 -280 -166 -442t-457 -162q-292 0 -458 162t-166 442v840h241v-840q-1 -180 103 -284t281 -103q177 0 279 102q101 102 101 285v840h242z" />
    <glyph glyph-name="V" unicode="V" horiz-adv-x="1413" 
d="M827 0h-249l-572 1434h260l443 -1166l446 1166h252z" />
    <glyph glyph-name="W" unicode="W" horiz-adv-x="2121" 
d="M1663 0h-248l-340 1118l-344 -1118h-250l-475 1434h260l348 -1166l347 1164l237 2l348 -1166l346 1166h250z" />
    <glyph glyph-name="X" unicode="X" horiz-adv-x="1417" 
d="M852 745l522 -745h-289l-387 541l-385 -541h-282l522 735l-485 699h280l350 -498l353 498h282z" />
    <glyph glyph-name="Y" unicode="Y" horiz-adv-x="1304" 
d="M776 0h-239v469l-535 965h244l409 -699l402 699h246l-527 -957v-477z" />
    <glyph glyph-name="Z" unicode="Z" horiz-adv-x="1363" 
d="M1286 217v-217h-1210v174l874 1043h-848v217h1174v-174l-873 -1043h883z" />
    <glyph glyph-name="bracketleft" unicode="[" horiz-adv-x="706" 
d="M653 1331h-254v-1397h254v-188h-465v1774h465v-189z" />
    <glyph glyph-name="backslash" unicode="\" horiz-adv-x="1116" 
d="M467 1671l649 -1911h-201l-649 1911h201z" />
    <glyph glyph-name="bracketright" unicode="]" horiz-adv-x="968" 
d="M780 1520v-1774h-465v188h254v1397h-254v189h465z" />
    <glyph glyph-name="asciicircum" unicode="^" horiz-adv-x="1101" 
d="M852 270l-301 662l-303 -662h-182l380 807h207l381 -807h-182z" />
    <glyph glyph-name="underscore" unicode="_" horiz-adv-x="1159" 
d="M1159 -418h-1159v144h1159v-144z" />
    <glyph glyph-name="grave" unicode="`" 
d="M573 1247h-208l-250 201l241 102z" />
    <glyph glyph-name="a" unicode="a" horiz-adv-x="1200" 
d="M530 483q-117 1 -171 -33t-54 -110q1 -76 57 -120t168 -44t198 58q87 58 97 149v100h-295zM825 688q-1 219 -277 219q-144 0 -304 -110l-97 164q125 73 225 105t244 32q209 0 324 -102t117 -281l2 -715h-232v133q-117 -143 -360 -143q-174 0 -279 95q-104 95 -104 244
t109 237t303 89h329v33z" />
    <glyph glyph-name="b" unicode="b" horiz-adv-x="1392" 
d="M752 193q145 0 238 99t93 255t-93 255t-238 99q-144 0 -238 -99t-94 -255t94 -255t238 -99zM788 1098q244 0 388 -155t145 -401q0 -246 -141 -399q-141 -152 -375 -151q-262 0 -385 196v-188h-236v1520h236v-619q124 197 368 197z" />
    <glyph glyph-name="c" unicode="c" horiz-adv-x="1155" 
d="M621 1098q295 0 450 -178l-129 -152q-123 125 -311 123q-141 0 -232.5 -97.5t-91.5 -251t91 -250.5t233 -97q209 0 321 131l131 -131q-154 -203 -462 -203q-244 0 -396.5 152.5t-152.5 399.5t152.5 400.5t396.5 153.5z" />
    <glyph glyph-name="d" unicode="d" horiz-adv-x="1396" 
d="M643 186q147 0 241 100t93 256q0 157 -93 257q-92 100 -240 100t-242 -100t-93 -257q-1 -156 93 -256t241 -100zM1212 1520v-1520h-235v186q-121 -197 -383 -196q-233 0 -378 154q-144 155 -144 403q0 249 143 401t375 152q262 0 387 -199v619h235z" />
    <glyph glyph-name="e" unicode="e" horiz-adv-x="1204" 
d="M627 909q-131 0 -216.5 -75.5t-105.5 -206.5h623q-6 131 -88 206.5t-213 75.5zM647 182q184 0 307 127l125 -133q-168 -184 -435 -184t-419.5 152.5t-152.5 398t153.5 399.5t397.5 156q281 0 406.5 -169t103.5 -474h-824q29 -127 119 -200t219 -73z" />
    <glyph glyph-name="f" unicode="f" horiz-adv-x="702" 
d="M608 1325q-72 0 -113 -37q-42 -37 -42 -110v-129h284v-177h-284v-872h-234v872h-143v177h143v106q0 179 111 277t259 98t251 -76l-90 -180q-70 51 -142 51z" />
    <glyph glyph-name="g" unicode="g" horiz-adv-x="1310" 
d="M608 238q139 0 228 94q88 94 88 241t-87 241t-227 93q-140 0 -227 -93q-88 -92 -88 -240t87 -242t226 -94zM1157 1090v-984q1 -233 -153 -371t-404 -138t-461 143l101 170q160 -119 329 -119t261 84t94 225v138q-114 -184 -348 -184t-369 144q-135 146 -135 380t133 375
q133 142 350 145q250 2 369 -185v177h233z" />
    <glyph glyph-name="h" unicode="h" horiz-adv-x="1370" 
d="M823 1098q190 0 298 -112t108 -308v-678h-236v612q0 123 -69.5 194t-202.5 70t-217 -96.5t-84 -242.5v-537h-236v1520h236v-643q112 221 403 221z" />
    <glyph glyph-name="i" unicode="i" horiz-adv-x="581" 
d="M408 0h-234v1090h234v-1090zM291 1544q59 0 98 -40t39 -102t-39 -102t-98 -40t-98 40t-39 102t39 102t98 40z" />
    <glyph glyph-name="j" unicode="j" horiz-adv-x="587" 
d="M406 1090v-1121q0 -182 -104 -279q-104 -98 -240 -98t-236 74l78 182q70 -49 133 -49t99 37t36 111v1143h234zM290 1544q62 0 103 -40t41 -102t-41 -104t-103 -41q-62 0 -104 41q-41 42 -41 104t41 102q42 40 104 40z" />
    <glyph glyph-name="k" unicode="k" horiz-adv-x="1218" 
d="M420 0h-236v1520h236v-918l481 488h270l-403 -422l434 -668h-278l-320 500l-184 -195v-305z" />
    <glyph glyph-name="l" unicode="l" horiz-adv-x="604" 
d="M420 0h-236v1520h236v-1520z" />
    <glyph glyph-name="m" unicode="m" horiz-adv-x="2136" 
d="M1595 1098q187 0 293 -113t107 -307v-678h-236v612q0 125 -68 196q-69 71 -198 69q-129 -1 -210 -97t-81 -241v-539h-235v612q0 125 -69 196t-187 71q-139 -3 -221 -99t-82 -241v-539h-234v1090h234v-211q109 219 395 219q145 0 243 -69t136 -193q100 262 413 262z" />
    <glyph glyph-name="n" unicode="n" horiz-adv-x="1357" 
d="M811 1098q190 0 298 -112t108 -308v-678h-236v612q0 123 -69.5 194t-196.5 70t-210 -83t-95 -213v-580h-236v1090h236v-209q110 217 401 217z" />
    <glyph glyph-name="o" unicode="o" horiz-adv-x="1280" 
d="M640 895q-146 0 -240 -98t-93 -255q0 -157 93 -255q92 -99 240 -99t240 98t93 256q0 157 -93 255q-94 98 -240 98zM640 1098q253 0 411 -153q157 -153 157 -399t-158 -401q-158 -153 -410 -153q-253 0 -411 154q-157 154 -157 400q0 248 158 400t410 152z" />
    <glyph glyph-name="p" unicode="p" horiz-adv-x="1392" 
d="M752 193q145 0 238 99t93 255t-93 255t-238 99q-144 0 -238 -99t-94 -255t94 -255t238 -99zM788 1098q244 0 388 -155t145 -401q0 -246 -141 -399q-141 -152 -375 -151q-262 0 -385 196v-585h-236v1487h236v-189q124 197 368 197z" />
    <glyph glyph-name="q" unicode="q" horiz-adv-x="1396" 
d="M643 186q147 0 241 100t93 256q0 157 -93 257q-92 100 -240 100t-242 -100t-93 -257q-1 -156 93 -256t241 -100zM1212 1090v-1487h-235v583q-121 -197 -383 -196q-233 0 -378 154q-144 155 -144 403q0 249 143 401t375 152q262 0 387 -199v189h235z" />
    <glyph glyph-name="r" unicode="r" horiz-adv-x="806" 
d="M410 1090v-218q113 225 376 226v-226q-162 8 -262 -75.5t-114 -227.5v-569h-236v1090h236z" />
    <glyph glyph-name="s" unicode="s" horiz-adv-x="962" 
d="M500 1100q225 0 381 -111l-86 -174q-156 96 -315 96t-158 -108q0 -53 59 -88t144 -58.5t170 -55.5t144.5 -103.5t59.5 -182.5q0 -158 -120 -240.5t-298 -82.5q-123 0 -240.5 40t-197.5 111l84 168q70 -61 171 -98q102 -37 188 -37q184 0 184 117q0 61 -59.5 98
t-143.5 59.5t-168 53.5t-142.5 101.5t-58.5 178.5q0 156 116 236t286 80z" />
    <glyph glyph-name="t" unicode="t" horiz-adv-x="833" 
d="M522.5 -10q-133.5 0 -219.5 80t-86 237v565h-154v177h154v299h234v-299h321v-177h-321v-522q0 -82 28.5 -114.5t91 -32.5t160.5 47l60 -180q-135 -80 -268.5 -80z" />
    <glyph glyph-name="u" unicode="u" horiz-adv-x="1337" 
d="M1163 1090v-1090h-235v213q-106 -217 -389 -221q-186 0 -293 112q-106 113 -107 308v678h236v-613q-1 -123 67 -193t196 -70q128 1 209 96t81 243v537h235z" />
    <glyph glyph-name="v" unicode="v" horiz-adv-x="1075" 
d="M668 0h-244l-422 1090h246l303 -859l299 859h235z" />
    <glyph glyph-name="w" unicode="w" horiz-adv-x="1828" 
d="M1442 0h-244l-276 807l-277 -807h-242l-401 1090h242l282 -857l275 857h243l277 -857l278 857h240z" />
    <glyph glyph-name="x" unicode="x" horiz-adv-x="1134" 
d="M569 717l248 373h258l-350 -531l375 -559h-271l-260 399l-278 -399h-262l385 559l-359 531h271z" />
    <glyph glyph-name="y" unicode="y" horiz-adv-x="1087" 
d="M248 -408q-141 0 -252 93l100 182q74 -53 142 -53q111 0 165 120l37 82l-450 1074h243l326 -826l303 826h236l-496 -1240q-102 -258 -354 -258z" />
    <glyph glyph-name="z" unicode="z" horiz-adv-x="1099" 
d="M111 897v193l895 -3v-157l-623 -737l641 -3v-192l-932 2v160l623 737h-604z" />
    <glyph glyph-name="braceleft" unicode="{" horiz-adv-x="673" 
d="M438 1188v-336q0 -98 -32 -150q-33 -51 -111 -71q78 -17 111 -69t32 -150v-336q0 -78 44 -112t151 -34v-188h-88q-172 0 -246 59t-74 203v422q0 57 -20 83t-68 26h-63v194h63q47 0 68 26q20 26 20 83v424q0 141 74 200t246 60h88v-189q-107 1 -151 -33t-44 -112z" />
    <glyph glyph-name="bar" unicode="|" horiz-adv-x="550" 
d="M365 -238h-179v1897h179v-1897z" />
    <glyph glyph-name="braceright" unicode="}" horiz-adv-x="823" 
d="M823 729v-194h-63q-48 0 -68 -26t-20 -83v-422q0 -142 -74 -202t-246 -60h-88v188q106 0 151 34q44 34 44 112v336q0 98 33 149t110 72q-78 18 -110 69t-33 150v336q0 78 -44 112t-151 33v189h88q172 0 246 -60t74 -200v-424q0 -57 20 -83t68 -26h63z" />
    <glyph glyph-name="asciitilde" unicode="~" horiz-adv-x="1019" 
d="M334 809q72 0 173 -58t138 -59q80 0 80 103h162q0 -287 -199 -287q-76 0 -175 58t-134 59q-80 0 -80 -103h-164q0 287 199 287z" />
    <glyph glyph-name="nbspace" unicode="&#xa0;" horiz-adv-x="528" 
 />
    <glyph glyph-name="exclamdown" unicode="&#xa1;" horiz-adv-x="428" 
d="M352 -328h-223v355l37 604h149l37 -604v-355zM240 836q-55 0 -93 37q-37 39 -37 97t37 97t93 39t92 -39q37 -39 37 -97t-37 -96t-92 -38z" />
    <glyph glyph-name="cent" unicode="&#xa2;" horiz-adv-x="1155" 
d="M307 543q1 -125 61 -214t162 -120v668q-102 -31 -162 -120t-61 -214zM709 -291h-179v289q-206 29 -332 176q-126 148 -126 370t126 370t332 178v309h179v-307q231 -25 362 -174l-129 -152q-94 98 -233 119v-686q153 19 243 125l131 -131q-129 -172 -374 -199v-287z" />
    <glyph glyph-name="sterling" unicode="&#xa3;" horiz-adv-x="1120" 
d="M487 197h574v-197h-985v197h170v413h-170v172h170v207q0 217 113 336q114 119 323 119q244 0 405 -184l-96 -189q-131 156 -284 156q-219 0 -220 -244v-201h361v-172h-361v-413z" />
    <glyph glyph-name="currency" unicode="&#xa4;" horiz-adv-x="1456" 
d="M367 654q0 -140 105 -238t256 -99q150 1 258 99t108 238t-108 240t-258 101q-150 0 -256 -100q-105 -101 -105 -241zM1280 653q0 -170 -104 -311l208 -209l-133 -141l-217 215q-139 -90 -306 -90t-306 90l-217 -215l-133 141l209 209q-103 141 -103 310t98 311l-204 204
l133 142l211 -211q141 96 311 96t313 -94l211 209l133 -142l-204 -204q100 -140 100 -310z" />
    <glyph glyph-name="yen" unicode="&#xa5;" horiz-adv-x="1286" 
d="M1178 659v-102h-357l-43 -78v-92h400v-102h-400v-285h-241v285h-383v102h383v82l-50 88h-333v102h278l-430 775h244l409 -699l402 699h246l-426 -775h301z" />
    <glyph glyph-name="brokenbar" unicode="&#xa6;" horiz-adv-x="550" 
d="M365 -238h-179v709h179v-709zM365 950h-179v709h179v-709z" />
    <glyph glyph-name="section" unicode="&#xa7;" horiz-adv-x="1021" 
d="M504 770q-212 0 -213 -132q0 -64 75 -111q75 -46 178 -46t154 36q52 37 52 101t-72 108q-70 44 -174 44zM129 1126q1 131 111 213t304 82t374 -108l-74 -152q-164 94 -312 94q-90 1 -144 -33t-54 -92q0 -103 221 -165q92 -27 183 -60t156 -103q64 -70 64 -166
q0 -97 -63 -171t-158 -103q94 -41 136 -94t42 -139q1 -133 -115 -218t-304 -85q-262 0 -453 156l72 151q176 -139 374 -139q94 0 155 37q60 37 60 95q1 105 -218 169q-91 27 -182 59t-154 103q-64 70 -64 169t67 167t183 96q-115 47 -161 101t-46 136z" />
    <glyph glyph-name="dieresis" unicode="&#xa8;" horiz-adv-x="794" 
d="M541 1542q53 0 88 -37t35 -93t-35 -93t-88 -37t-89 37t-36 93t36 93t89 37zM178 1542q53 0 88 -37t35 -93t-35 -93t-88 -37t-89 37t-36 93t36 93t89 37z" />
    <glyph glyph-name="copyright" unicode="&#xa9;" horiz-adv-x="1525" 
d="M774 1065q156 0 268 -109l-71 -86q-87 86 -193 86t-178 -70t-72 -170q0 -101 72 -172t178 -71t193 82l71 -80q-118 -115 -272 -115t-259 102t-105 253q0 150 106 250t262 100zM1339 717q-1 239 -167 405t-409 166t-410 -169t-167 -407t166 -404q166 -167 409 -167
t411 169t167 407zM764 1411q292 0 492 -204q200 -205 200 -491t-203 -492t-493 -206t-490 204q-201 204 -200 491q0 287 202 493t492 205z" />
    <glyph glyph-name="ordfeminine" unicode="&#xaa;" horiz-adv-x="788" 
d="M344 1042q125 0 178 101v86h-166q-133 0 -133 -88q0 -45 33 -72t88 -27zM402 1591q136 0 210 -61t74 -170v-422h-162v102q-78 -109 -235 -108q-102 0 -162 53q-59 53 -59 141t66 137q67 48 190 50h198v28q0 121 -155 121q-96 0 -220 -61l-41 115q159 75 296 75z" />
    <glyph glyph-name="guillemotleft" unicode="&#xab;" horiz-adv-x="933" 
d="M631 532l219 -356h-197l-237 356l237 357h197zM262 532l219 -356h-196l-238 356l238 357h196z" />
    <glyph glyph-name="logicalnot" unicode="&#xac;" horiz-adv-x="1150" 
d="M995 827v-530h-172v369h-751v161h923z" />
    <glyph glyph-name="softhyphen" unicode="&#xad;" horiz-adv-x="753" 
d="M629 543h-504v162h504v-162z" />
    <glyph glyph-name="registered" unicode="&#xae;" horiz-adv-x="1525" 
d="M616 696h162q80 0 125 38t45 107t-45 105t-125 37h-162v-287zM1059 844q0 -166 -146 -223l160 -232h-135l-129 209h-193v-209h-116v692h278q135 0 208 -61t73 -176zM761 141q243 0 411 169t167 407q0 239 -167 405q-168 166 -410 166t-409 -169t-167 -407t166 -404
q166 -167 409 -167zM764 1411q292 0 492 -204q200 -205 200 -491t-203 -492t-493 -206t-490 204q-201 204 -200 491q0 287 202 493t492 205z" />
    <glyph glyph-name="macron" unicode="&#xaf;" 
d="M621 1313h-523v170h523v-170z" />
    <glyph glyph-name="degree" unicode="&#xb0;" horiz-adv-x="708" 
d="M403 1554q-57 0 -97 -38t-40 -92t40 -92t97 -38t98 38q40 38 40 91t-40 93q-41 38 -98 38zM403 1659q98 0 168 -70t70 -166t-70 -166q-70 -69 -167 -69q-98 0 -168 70t-70 165q0 96 70 166t167 70z" />
    <glyph glyph-name="plusminus" unicode="&#xb1;" horiz-adv-x="1019" 
d="M72 205h876v-164h-876v164zM948 881v-160h-360v-350h-154v350h-362v160h362v350h154v-350h360z" />
    <glyph glyph-name="twosuperior" unicode="&#xb2;" horiz-adv-x="784" 
d="M391 1440q127 0 206 -58t79 -157q0 -121 -164 -279l-221 -223h422v-135h-637v114l321 330q100 96 101 168q0 96 -125 96t-248 -106l-68 127q162 123 334 123z" />
    <glyph glyph-name="threesuperior" unicode="&#xb3;" horiz-adv-x="727" 
d="M317 711q80 0 125 37t45 100q0 127 -172 127h-127v94l230 234h-355v127h551v-101l-243 -246l45 -4q108 -10 174 -70t66 -169t-90 -185q-90 -75 -252 -75t-291 94l71 135q98 -98 223 -98z" />
    <glyph glyph-name="acute" unicode="&#xb4;" 
d="M586 1446l-250 -201h-209l217 303z" />
    <glyph glyph-name="mu" unicode="&#xb5;" horiz-adv-x="1382" 
d="M1208 1090v-1090h-235v213q-106 -217 -389 -221q-84 0 -164 26v-415h-236v1487h236v-613q0 -123 68 -193t195 -70q128 1 209 96t81 243v537h235z" />
    <glyph glyph-name="paragraph" unicode="&#xb6;" horiz-adv-x="1259" 
d="M1071 -223h-180v1595h-268v-1595h-179v952h-63q-286 0 -365 261q-18 62 -18 126q0 170 115 287t346 117h612v-1743z" />
    <glyph glyph-name="periodcentered" unicode="&#xb7;" horiz-adv-x="434" 
d="M217 717q53 0 88 -36t35 -92t-35 -93t-88 -37t-88 37t-35 93t35 92t88 36z" />
    <glyph glyph-name="cedilla" unicode="&#xb8;" 
d="M557 -276q0 -76 -62 -130q-61 -54 -159 -53q-98 0 -176 58l45 110q53 -41 107 -41t80 26t26 58t-26 56q-26 22 -67 22t-77 -10l86 203h139l-59 -125q143 -26 143 -174z" />
    <glyph glyph-name="onesuperior" unicode="&#xb9;" horiz-adv-x="536" 
d="M203 588v704h-170v142h342v-846h-172z" />
    <glyph glyph-name="ordmasculine" unicode="&#xba;" horiz-adv-x="833" 
d="M416 1454q-84 0 -136 -53t-52 -141t52 -142t136 -53q84 0 135 53q51 54 51 142t-51 141t-135 53zM416 1589q158 0 257 -90t99 -237q0 -148 -99 -238t-257 -90t-256 90t-98 238t98 237q98 90 256 90z" />
    <glyph glyph-name="guillemotright" unicode="&#xbb;" horiz-adv-x="958" 
d="M743 535l-219 356h197l237 -356l-237 -357h-197zM375 535l-219 356h196l238 -356l-238 -357h-196z" />
    <glyph glyph-name="onequarter" unicode="&#xbc;" horiz-adv-x="1673" 
d="M1341 326v209h162v-209h125v-127h-125v-199h-162v199h-417v120l293 527h163l-284 -520h245zM102 0l1055 1434h225l-1052 -1434h-228zM203 588v704h-170v142h342v-846h-172z" />
    <glyph glyph-name="onehalf" unicode="&#xbd;" horiz-adv-x="1718" 
d="M1325 852q127 0 206 -58t79 -157q0 -121 -164 -279l-221 -221h422v-137h-637v117l321 327q100 100 101 170q0 45 -35 71t-99 26q-117 0 -239 -107l-68 125q158 123 334 123zM102 0l1055 1434h225l-1052 -1434h-228zM203 588v704h-170v142h342v-846h-172z" />
    <glyph glyph-name="threequarters" unicode="&#xbe;" horiz-adv-x="1798" 
d="M1468 326v209h162v-209h125v-127h-125v-199h-162v199h-417v120l292 527h164l-284 -520h245zM317 711q80 0 125 37t45 100q0 127 -172 127h-127v94l230 234h-355v127h551v-101l-243 -246l45 -4q108 -10 174 -70t66 -169t-90 -185q-90 -75 -252 -75t-291 94l71 135
q98 -98 223 -98zM229 0l1055 1434h225l-1052 -1434h-228z" />
    <glyph glyph-name="questiondown" unicode="&#xbf;" horiz-adv-x="907" 
d="M475 -336q-190 0 -301 89t-111 253t115 279q47 47 94 92q115 110 115 244h180q0 -167 -100 -277q-41 -45 -83 -85q-103 -98 -101 -216q0 -88 56 -133q55 -45 155 -45q100 -1 158 53t61 156l184 -2q-6 -192 -119 -300t-303 -108zM479 836q-55 0 -92 38t-37 96t37 97t92 39
t92 -39t37 -97t-37 -96t-92 -38z" />
    <glyph glyph-name="Agrave" unicode="&#xc0;" horiz-adv-x="1511" 
d="M1022 539l-270 637l-271 -637h541zM1114 324h-723l-137 -324h-252l633 1434h248l626 -1434h-258zM674 1591l-250 201l242 102l217 -303h-209z" />
    <glyph glyph-name="Aacute" unicode="&#xc1;" horiz-adv-x="1511" 
d="M1022 539l-270 637l-271 -637h541zM1114 324h-723l-137 -324h-252l633 1434h248l626 -1434h-258zM827 1589h-209l218 303l241 -102z" />
    <glyph glyph-name="Acircumflex" unicode="&#xc2;" horiz-adv-x="1511" 
d="M1022 539l-270 637l-271 -637h541zM1114 324h-723l-137 -324h-252l633 1434h248l626 -1434h-258zM629 1595h-193l211 289h217l211 -289h-192l-127 181z" />
    <glyph glyph-name="Atilde" unicode="&#xc3;" horiz-adv-x="1511" 
d="M1022 539l-270 637l-271 -637h541zM1114 324h-723l-137 -324h-252l633 1434h248l626 -1434h-258zM653 1729q-76 0 -75 -101h-152q0 268 188 268q60 0 138 -56t106 -56q78 0 78 100h149q0 -268 -186 -268q-69 0 -143 56t-103 57z" />
    <glyph glyph-name="Adieresis" unicode="&#xc4;" horiz-adv-x="1511" 
d="M1022 539l-270 637l-271 -637h541zM1114 324h-723l-137 -324h-252l633 1434h248l626 -1434h-258zM938 1626q-53 0 -89 37t-36 93t36 93t89 37t88 -37t35 -93t-35 -93t-88 -37zM575 1626q-53 0 -89 37t-36 93t36 93t89 37t89 -37t34 -93q0 -56 -35 -93t-88 -37z" />
    <glyph glyph-name="Aring" unicode="&#xc5;" horiz-adv-x="1511" 
d="M1022 539l-270 637l-271 -637h541zM761 1720q-59 0 -101 -40t-42 -95t41 -94t101 -39t101 39q42 39 42 94t-42 95t-100 40zM510 1572q0 114 74 189q74 74 177 74t177 -74q74 -75 74 -189t-107 -190l604 -1382h-258l-137 324h-723l-137 -324h-252l612 1384
q-104 74 -104 188z" />
    <glyph glyph-name="AE" unicode="&#xc6;" horiz-adv-x="2154" 
d="M999 543v690h-49l-389 -690h438zM2046 217v-217h-1047v354h-544l-201 -354h-252l832 1434h1187v-217h-782v-390h703v-215h-703v-395h807z" />
    <glyph glyph-name="Ccedilla" unicode="&#xc7;" horiz-adv-x="1427" 
d="M983 -276q0 -76 -62.5 -129.5t-159.5 -53.5t-175 58l45 110q53 -41 107.5 -41t80 25.5t25.5 58.5t-25.5 55.5t-67 22.5t-77.5 -10l74 172q-291 25 -484.5 230.5t-193.5 503.5t218 506t535 208q152 0 296.5 -58.5t248.5 -162.5l-141 -177q-78 84 -184.5 133.5t-215.5 49.5
q-215 0 -363.5 -146.5t-148.5 -358.5t148.5 -358.5t367.5 -146.5t396 170l143 -160q-206 -202 -485 -231l-45 -96q143 -26 143 -174z" />
    <glyph glyph-name="Egrave" unicode="&#xc8;" horiz-adv-x="1343" 
d="M1212 1217h-782v-388h700v-217h-700v-395h807v-217h-1049v1434h1024v-217zM831 1591h-208l-250 201l241 102z" />
    <glyph glyph-name="Eacute" unicode="&#xc9;" horiz-adv-x="1343" 
d="M1212 1217h-782v-388h700v-217h-700v-395h807v-217h-1049v1434h1024v-217zM1026 1790l-250 -201h-209l217 303z" />
    <glyph glyph-name="Ecircumflex" unicode="&#xca;" horiz-adv-x="1343" 
d="M1212 1217h-782v-388h700v-217h-700v-395h807v-217h-1049v1434h1024v-217zM1024 1595h-193l-126 181l-127 -181h-193l211 289h217z" />
    <glyph glyph-name="Edieresis" unicode="&#xcb;" horiz-adv-x="1343" 
d="M1212 1217h-782v-388h700v-217h-700v-395h807v-217h-1049v1434h1024v-217zM887 1886q53 0 88 -37t35 -93t-35 -93t-88 -37t-89 37t-36 93t36 93t89 37zM524.5 1886q53.5 0 88 -37t34.5 -93t-34.5 -93t-88 -37t-89.5 37t-36 93t36 93t89.5 37z" />
    <glyph glyph-name="Igrave" unicode="&#xcc;" horiz-adv-x="618" 
d="M430 0h-242v1434h242v-1434zM434 1591h-209l-250 201l242 102z" />
    <glyph glyph-name="Iacute" unicode="&#xcd;" horiz-adv-x="618" 
d="M430 0h-242v1434h242v-1434zM631 1790l-250 -201h-209l217 303z" />
    <glyph glyph-name="Icircumflex" unicode="&#xce;" horiz-adv-x="618" 
d="M430 0h-242v1434h242v-1434zM629 1595h-193l-127 181l-127 -181h-192l211 289h217z" />
    <glyph glyph-name="Idieresis" unicode="&#xcf;" horiz-adv-x="618" 
d="M430 0h-242v1434h242v-1434zM492 1886q53 0 88 -37q34 -37 34 -93t-34 -93t-88 -37q-53 0 -90 37q-36 37 -36 93t36 93q37 37 90 37zM129 1886q53 0 88 -37t35 -93t-35 -93t-88 -37t-89 37t-36 93t36 93t89 37z" />
    <glyph glyph-name="Eth" unicode="&#xd0;" horiz-adv-x="1628" 
d="M469 217h354q211 0 351 140q139 139 139 357q1 218 -143 360t-357 143h-344v-426h408v-142h-408v-432zM229 1434h588q322 0 532 -203t210 -514t-212 -514t-538 -203h-580v649h-229v142h229v643z" />
    <glyph glyph-name="Ntilde" unicode="&#xd1;" horiz-adv-x="1622" 
d="M1432 0h-238l-764 1028v-1028h-242v1434h238l768 -1031v1031h238v-1434zM670 1896q61 0 138 -56t105 -56q78 0 78 100h150q0 -268 -187 -268q-68 0 -142.5 56.5t-102.5 56.5q-76 0 -76 -101h-152q1 268 189 268z" />
    <glyph glyph-name="Ograve" unicode="&#xd2;" horiz-adv-x="1658" 
d="M830 1223q-212 -1 -364 -147t-151 -359q0 -213 153 -361q154 -148 364 -149q210 0 360 148q150 147 150 361t-150 360t-362 147zM829 1440q322 0 541 -208t219 -515t-219 -517t-541 -210q-323 0 -541 210t-218 517t218 515t541 208zM946 1591h-209l-250 201l242 102z" />
    <glyph glyph-name="Oacute" unicode="&#xd3;" horiz-adv-x="1658" 
d="M830 1223q-212 -1 -364 -147t-151 -359q0 -213 153 -361q154 -148 364 -149q210 0 360 148q150 147 150 361t-150 360t-362 147zM829 1440q322 0 541 -208t219 -515t-219 -517t-541 -210q-323 0 -541 210t-218 517t218 515t541 208zM1141 1790l-250 -201h-209l217 303z
" />
    <glyph glyph-name="Ocircumflex" unicode="&#xd4;" horiz-adv-x="1658" 
d="M830 1223q-212 -1 -364 -147t-151 -359q0 -213 153 -361q154 -148 364 -149q210 0 360 148q150 147 150 361t-150 360t-362 147zM829 1440q322 0 541 -208t219 -515t-219 -517t-541 -210q-323 0 -541 210t-218 517t218 515t541 208zM1139 1595h-193l-127 181l-127 -181
h-192l211 289h217z" />
    <glyph glyph-name="Otilde" unicode="&#xd5;" horiz-adv-x="1658" 
d="M830 1223q-212 -1 -364 -147t-151 -359q0 -213 153 -361q154 -148 364 -149q210 0 360 148q150 147 150 361t-150 360t-362 147zM829 1440q322 0 541 -208t219 -515t-219 -517t-541 -210q-323 0 -541 210t-218 517t218 515t541 208zM678 1896q61 0 138 -56t106 -56
q78 0 77 100h150q0 -268 -186 -268q-68 0 -143 56t-103 57q-76 0 -76 -101h-152q1 268 189 268z" />
    <glyph glyph-name="Odieresis" unicode="&#xd6;" horiz-adv-x="1658" 
d="M830 1223q-212 -1 -364 -147t-151 -359q0 -213 153 -361q154 -148 364 -149q210 0 360 148q150 147 150 361t-150 360t-362 147zM829 1440q322 0 541 -208t219 -515t-219 -517t-541 -210q-323 0 -541 210t-218 517t218 515t541 208zM1001 1886q53 0 89 -37t34 -93
q0 -56 -34 -93t-88 -37t-90 37t-36 93t36 93t89 37zM639 1886q53 0 88 -37t35 -93t-35 -93t-88 -37t-89 37t-36 93t36 93t89 37z" />
    <glyph glyph-name="multiply" unicode="&#xd7;" horiz-adv-x="1019" 
d="M623 666l251 -254l-108 -115l-254 256l-256 -256l-109 115l252 254l-252 252l109 114l256 -256l254 256l108 -114z" />
    <glyph glyph-name="Oslash" unicode="&#xd8;" horiz-adv-x="1658" 
d="M831 207q211 0 361 148t149 362q0 157 -86 283t-227 184l-326 -961q66 -16 129 -16zM315 717q0 -141 72 -259t191 -186l321 947q-45 4 -68 4q-213 -1 -365 -147t-151 -359zM1589 717q0 -307 -219 -517t-541 -210q-100 0 -196 22l-90 -262h-142l105 305q-199 87 -318 265
t-118 397q0 307 219 515t540 208q72 0 142 -13l78 234h143l-90 -266q219 -76 353 -259t134 -419z" />
    <glyph glyph-name="Ugrave" unicode="&#xd9;" horiz-adv-x="1564" 
d="M1407 1434v-840q0 -280 -166 -442t-457 -162q-292 0 -458 162t-166 442v840h241v-840q-1 -180 103 -284t281 -103q177 0 279 102q101 102 101 285v840h242zM909 1591h-209l-249 201l241 102z" />
    <glyph glyph-name="Uacute" unicode="&#xda;" horiz-adv-x="1564" 
d="M1407 1434v-840q0 -280 -166 -442t-457 -162q-292 0 -458 162t-166 442v840h241v-840q-1 -180 103 -284t281 -103q177 0 279 102q101 102 101 285v840h242zM1104 1790l-250 -201h-209l217 303z" />
    <glyph glyph-name="Ucircumflex" unicode="&#xdb;" horiz-adv-x="1564" 
d="M1407 1434v-840q0 -280 -166 -442t-457 -162q-292 0 -458 162t-166 442v840h241v-840q-1 -180 103 -284t281 -103q177 0 279 102q101 102 101 285v840h242zM1102 1595h-193l-127 181l-127 -181h-192l211 289h217z" />
    <glyph glyph-name="Udieresis" unicode="&#xdc;" horiz-adv-x="1564" 
d="M1407 1434v-840q0 -280 -166 -442t-457 -162q-292 0 -458 162t-166 442v840h241v-840q-1 -180 103 -284t281 -103q177 0 279 102q101 102 101 285v840h242zM965 1886q53 0 88 -37t35 -93t-36 -93q-34 -37 -87 -37t-89 37t-36 93t36 93t89 37zM602 1886q53 0 88 -37
t35 -93t-35 -93t-88 -37t-89 37t-36 93t36 93t89 37z" />
    <glyph glyph-name="Yacute" unicode="&#xdd;" horiz-adv-x="1304" 
d="M776 0h-239v469l-535 965h244l409 -699l402 699h246l-527 -957v-477zM723 1589h-209l217 303l242 -102z" />
    <glyph glyph-name="Thorn" unicode="&#xde;" horiz-adv-x="1390" 
d="M430 451h291q371 0 371 294q0 285 -371 285h-291v-579zM430 1231h301q291 0 449 -125q158 -126 158 -360t-158 -365t-449 -131h-301v-250h-242v1434h242v-203z" />
    <glyph glyph-name="germandbls" unicode="&#xdf;" horiz-adv-x="1339" 
d="M160 999q0 243 140 387t368 144t359 -109q132 -109 132 -286q-1 -121 -65 -217t-172 -138q145 -28 232 -118t87 -232q0 -190 -147 -310t-392 -120h-104v182h123q131 0 211 68t80 178t-92 174q-92 63 -250 64h-27v180q131 0 210 68t79 182q0 112 -70 178t-192 66t-200 -88
q-77 -87 -77 -236v-1016h-233v999z" />
    <glyph glyph-name="agrave" unicode="&#xe0;" horiz-adv-x="1200" 
d="M530 483q-117 1 -171 -33t-54 -110q1 -76 57 -120t168 -44t198 58q87 58 97 149v100h-295zM825 688q-1 219 -277 219q-144 0 -304 -110l-97 164q125 73 225 105t244 32q209 0 324 -102t117 -281l2 -715h-232v133q-117 -143 -360 -143q-174 0 -279 95q-104 95 -104 244
t109 237t303 89h329v33zM512 1247l-250 201l242 102l217 -303h-209z" />
    <glyph glyph-name="aacute" unicode="&#xe1;" horiz-adv-x="1200" 
d="M530 483q-117 1 -171 -33t-54 -110q1 -76 57 -120t168 -44t198 58q87 58 97 149v100h-295zM825 688q-1 219 -277 219q-144 0 -304 -110l-97 164q125 73 225 105t244 32q209 0 324 -102t117 -281l2 -715h-232v133q-117 -143 -360 -143q-174 0 -279 95q-104 95 -104 244
t109 237t303 89h329v33zM666 1245h-209l217 303l241 -102z" />
    <glyph glyph-name="acircumflex" unicode="&#xe2;" horiz-adv-x="1200" 
d="M530 483q-117 1 -171 -33t-54 -110q1 -76 57 -120t168 -44t198 58q87 58 97 149v100h-295zM825 688q-1 219 -277 219q-144 0 -304 -110l-97 164q125 73 225 105t244 32q209 0 324 -102t117 -281l2 -715h-232v133q-117 -143 -360 -143q-174 0 -279 95q-104 95 -104 244
t109 237t303 89h329v33zM467 1251h-193l211 289h217l211 -289h-192l-127 181z" />
    <glyph glyph-name="atilde" unicode="&#xe3;" horiz-adv-x="1200" 
d="M530 483q-117 1 -171 -33t-54 -110q1 -76 57 -120t168 -44t198 58q87 58 97 149v100h-295zM825 688q-1 219 -277 219q-144 0 -304 -110l-97 164q125 73 225 105t244 32q209 0 324 -102t117 -281l2 -715h-232v133q-117 -143 -360 -143q-174 0 -279 95q-104 95 -104 244
t109 237t303 89h329v33zM492 1384q-76 0 -76 -100h-152q0 268 189 268q61 0 138 -56t105 -56q78 0 78 100h150q0 -268 -187 -268q-68 0 -142 56t-103 56z" />
    <glyph glyph-name="adieresis" unicode="&#xe4;" horiz-adv-x="1200" 
d="M530 483q-117 1 -171 -33t-54 -110q1 -76 57 -120t168 -44t198 58q87 58 97 149v100h-295zM825 688q-1 219 -277 219q-144 0 -304 -110l-97 164q125 73 225 105t244 32q209 0 324 -102t117 -281l2 -715h-232v133q-117 -143 -360 -143q-174 0 -279 95q-104 95 -104 244
t109 237t303 89h329v33zM776 1282q-53 0 -89 37t-36 93t36 93t89 37t88 -37t35 -93t-35 -93t-88 -37zM414 1282q-53 0 -89 37t-36 93t36 93t89 37t88 -37t35 -93t-35 -93t-88 -37z" />
    <glyph glyph-name="aring" unicode="&#xe5;" horiz-adv-x="1200" 
d="M530 483q-117 1 -171 -33t-54 -110q1 -76 57 -120t168 -44t198 58q87 58 97 149v100h-295zM825 688q-1 219 -277 219q-144 0 -304 -110l-97 164q125 73 225 105t244 32q209 0 324 -102t117 -281l2 -715h-232v133q-117 -143 -360 -143q-174 0 -279 95q-104 95 -104 244
t109 237t303 89h329v33zM594 1534q-57 0 -98 -39t-41 -92t41 -92t98 -39t98 39t41 92t-41 92t-98 39zM594 1165q-100 0 -171 70t-71 167t71 168q71 70 171 70t171 -70t71 -168q0 -97 -71 -167t-171 -70z" />
    <glyph glyph-name="ae" unicode="&#xe6;" horiz-adv-x="1994" 
d="M831 500h-288q-115 0 -176 -42t-61 -122t58 -130t154 -50q238 0 330 227l45 -39q-6 18 -14 55l-48 11v90zM1391 926q-131 0 -219 -85t-105 -220h625q-4 135 -87 220t-214 85zM1392 1098q248 0 396 -167t139 -437h-860q17 -144 111 -228t233 -84q184 0 307 127l127 -133
q-172 -184 -452 -184q-160 0 -280 68t-183 194q-131 -264 -465 -264q-174 0 -278 91q-103 91 -103 237t109 226t305 83h331v61q0 104 -67 162q-68 57 -195 57q-174 0 -360 -110l-60 170q240 131 469 131q270 0 383 -164q145 164 393 164z" />
    <glyph glyph-name="ccedilla" unicode="&#xe7;" horiz-adv-x="1155" 
d="M791 -276q0 -76 -62.5 -129.5t-160 -53.5t-175.5 58l45 110q53 -41 107.5 -41t80 25.5t25.5 58.5t-25.5 55.5t-66.5 22.5t-78 -10l74 176q-217 20 -350 169.5t-133 387.5t152.5 391.5t396.5 153.5q295 0 450 -178l-129 -152q-123 125 -311 123q-141 0 -232.5 -97.5
t-91.5 -251t91 -250.5t233 -97q208 0 321 131l131 -131q-135 -178 -389 -199l-47 -98q144 -27 144 -174z" />
    <glyph glyph-name="egrave" unicode="&#xe8;" horiz-adv-x="1204" 
d="M627 909q-131 0 -216.5 -75.5t-105.5 -206.5h623q-6 131 -88 206.5t-213 75.5zM647 182q184 0 307 127l125 -133q-168 -184 -435 -184t-419.5 152.5t-152.5 398t153.5 399.5t397.5 156q281 0 406.5 -169t103.5 -474h-824q29 -127 119 -200t219 -73zM528 1247l-249 201
l241 102l217 -303h-209z" />
    <glyph glyph-name="eacute" unicode="&#xe9;" horiz-adv-x="1204" 
d="M627 909q-131 0 -216.5 -75.5t-105.5 -206.5h623q-6 131 -88 206.5t-213 75.5zM647 182q184 0 307 127l125 -133q-168 -184 -435 -184t-419.5 152.5t-152.5 398t153.5 399.5t397.5 156q281 0 406.5 -169t103.5 -474h-824q29 -127 119 -200t219 -73zM682 1245h-209
l217 303l242 -102z" />
    <glyph glyph-name="ecircumflex" unicode="&#xea;" horiz-adv-x="1204" 
d="M627 909q-131 0 -216.5 -75.5t-105.5 -206.5h623q-6 131 -88 206.5t-213 75.5zM647 182q184 0 307 127l125 -133q-168 -184 -435 -184t-419.5 152.5t-152.5 398t153.5 399.5t397.5 156q281 0 406.5 -169t103.5 -474h-824q29 -127 119 -200t219 -73zM485 1251h-192
l211 289h217l211 -289h-193l-127 181z" />
    <glyph glyph-name="edieresis" unicode="&#xeb;" horiz-adv-x="1204" 
d="M627 909q-131 0 -216.5 -75.5t-105.5 -206.5h623q-6 131 -88 206.5t-213 75.5zM647 182q184 0 307 127l125 -133q-168 -184 -435 -184t-419.5 152.5t-152.5 398t153.5 399.5t397.5 156q281 0 406.5 -169t103.5 -474h-824q29 -127 119 -200t219 -73zM794.5 1282
q-53.5 0 -89 37t-35.5 93t35.5 93t89 37t88.5 -37t35 -93t-35 -93t-88.5 -37zM432 1282q-53 0 -89 37t-36 93t36 93t89 37t88 -37t35 -93t-35 -93t-88 -37z" />
    <glyph glyph-name="igrave" unicode="&#xec;" horiz-adv-x="581" 
d="M408 0h-234v1090h234v-1090zM418 1247h-209l-250 201l242 102z" />
    <glyph glyph-name="iacute" unicode="&#xed;" horiz-adv-x="581" 
d="M408 0h-234v1090h234v-1090zM612 1446l-250 -201h-208l217 303z" />
    <glyph glyph-name="icircumflex" unicode="&#xee;" horiz-adv-x="581" 
d="M408 0h-234v1090h234v-1090zM610 1251h-192l-127 181l-127 -181h-193l211 289h217z" />
    <glyph glyph-name="idieresis" unicode="&#xef;" horiz-adv-x="581" 
d="M408 0h-234v1090h234v-1090zM473 1542q53 0 88 -37t35 -93t-35 -93t-88 -37t-89 37t-36 93t36 93t89 37zM111 1542q53 0 88 -37t35 -93t-36 -93q-34 -37 -87 -37t-89 37t-36 93t36 93t89 37z" />
    <glyph glyph-name="eth" unicode="&#xf0;" horiz-adv-x="1208" 
d="M299 470q0 -122 80 -196t214 -75t215 71t81 195t-81 197t-215 74t-214 -72t-80 -194zM74 455q0 209 127 331t338 121q117 0 216 -45t148 -121q-68 221 -285 424l-311 -102l-39 123l236 78q-131 100 -252 157l156 109q172 -78 313 -195l272 90l37 -122l-201 -66
q309 -315 310 -694q0 -252 -153 -403q-153 -150 -395 -150t-380 128q-137 128 -137 337z" />
    <glyph glyph-name="ntilde" unicode="&#xf1;" horiz-adv-x="1357" 
d="M811 1098q190 0 298 -112t108 -308v-678h-236v612q0 123 -69.5 194t-196.5 70t-210 -83t-95 -213v-580h-236v1090h236v-209q110 217 401 217zM606 1384q-76 0 -76 -100h-151q0 268 188 268q61 0 138 -56t106 -56q78 0 78 100h149q0 -268 -186 -268q-68 0 -142.5 56
t-103.5 56z" />
    <glyph glyph-name="ograve" unicode="&#xf2;" horiz-adv-x="1280" 
d="M640 895q-146 0 -240 -98t-93 -255q0 -157 93 -255q92 -99 240 -99t240 98t93 256q0 157 -93 255q-94 98 -240 98zM640 1098q253 0 411 -153q157 -153 157 -399t-158 -401q-158 -153 -410 -153q-253 0 -411 154q-157 154 -157 400q0 248 158 400t410 152zM766 1247h-209
l-250 201l242 102z" />
    <glyph glyph-name="oacute" unicode="&#xf3;" horiz-adv-x="1280" 
d="M640 895q-146 0 -240 -98t-93 -255q0 -157 93 -255q92 -99 240 -99t240 98t93 256q0 157 -93 255q-94 98 -240 98zM640 1098q253 0 411 -153q157 -153 157 -399t-158 -401q-158 -153 -410 -153q-253 0 -411 154q-157 154 -157 400q0 248 158 400t410 152zM961 1446
l-250 -201h-209l217 303z" />
    <glyph glyph-name="ocircumflex" unicode="&#xf4;" horiz-adv-x="1280" 
d="M640 895q-146 0 -240 -98t-93 -255q0 -157 93 -255q92 -99 240 -99t240 98t93 256q0 157 -93 255q-94 98 -240 98zM640 1098q253 0 411 -153q157 -153 157 -399t-158 -401q-158 -153 -410 -153q-253 0 -411 154q-157 154 -157 400q0 248 158 400t410 152zM961 1251h-193
l-127 181l-127 -181h-192l210 289h218z" />
    <glyph glyph-name="otilde" unicode="&#xf5;" horiz-adv-x="1280" 
d="M640 895q-146 0 -240 -98t-93 -255q0 -157 93 -255q92 -99 240 -99t240 98t93 256q0 157 -93 255q-94 98 -240 98zM640 1098q253 0 411 -153q157 -153 157 -399t-158 -401q-158 -153 -410 -153q-253 0 -411 154q-157 154 -157 400q0 248 158 400t410 152zM498 1552
q61 0 138 -56t105 -56q78 0 78 100h150q0 -268 -187 -268q-68 0 -142 56t-103 56q-76 0 -76 -100h-152q1 268 189 268z" />
    <glyph glyph-name="odieresis" unicode="&#xf6;" horiz-adv-x="1280" 
d="M640 895q-146 0 -240 -98t-93 -255q0 -157 93 -255q92 -99 240 -99t240 98t93 256q0 157 -93 255q-94 98 -240 98zM640 1098q253 0 411 -153q157 -153 157 -399t-158 -401q-158 -153 -410 -153q-253 0 -411 154q-157 154 -157 400q0 248 158 400t410 152zM823 1542
q53 0 88 -37t35 -93t-35 -93t-88 -37t-89 37t-36 93t36 93t89 37zM461 1542q53 0 88 -37t35 -93t-35 -93t-88 -37t-89 37t-36 93t36 93t89 37z" />
    <glyph glyph-name="divide" unicode="&#xf7;" horiz-adv-x="1019" 
d="M498 444q53 0 89 -36t36 -94q0 -56 -36 -93t-89 -37t-88 37t-35 93t35 93t88 37zM948 584h-876v161h876v-161zM498 1171q53 -1 89 -37t36 -92t-36 -94q-36 -37 -89 -37t-88 37t-35 93t35 93t88 37z" />
    <glyph glyph-name="oslash" unicode="&#xf8;" horiz-adv-x="1280" 
d="M641 170q154 0 250 103t96 270q0 115 -49 203t-135 133l-228 -703q31 -6 66 -6zM295 543q0 -117 49 -205t135 -131l228 702q-31 6 -66 6q-154 0 -250 -103t-96 -269zM1208 545q0 -246 -158 -400t-409 -153q-59 0 -121 10l-98 -301h-107l107 328q-162 57 -256 193t-94 323
q0 249 158 401t411 152q57 0 123 -11l88 275h106l-96 -301q160 -57 253 -193t93 -323z" />
    <glyph glyph-name="ugrave" unicode="&#xf9;" horiz-adv-x="1337" 
d="M1163 1090v-1090h-235v213q-106 -217 -389 -221q-186 0 -293 112q-106 113 -107 308v678h236v-613q-1 -123 67 -193t196 -70q128 1 209 96t81 243v537h235zM580 1247l-250 201l241 102l217 -303h-208z" />
    <glyph glyph-name="uacute" unicode="&#xfa;" horiz-adv-x="1337" 
d="M1163 1090v-1090h-235v213q-106 -217 -389 -221q-186 0 -293 112q-106 113 -107 308v678h236v-613q-1 -123 67 -193t196 -70q128 1 209 96t81 243v537h235zM733 1245h-209l217 303l242 -102z" />
    <glyph glyph-name="ucircumflex" unicode="&#xfb;" horiz-adv-x="1337" 
d="M1163 1090v-1090h-235v213q-106 -217 -389 -221q-186 0 -293 112q-106 113 -107 308v678h236v-613q-1 -123 67 -193t196 -70q128 1 209 96t81 243v537h235zM535 1251h-193l211 289h217l211 -289h-193l-126 181z" />
    <glyph glyph-name="udieresis" unicode="&#xfc;" horiz-adv-x="1337" 
d="M1163 1090v-1090h-235v213q-106 -217 -389 -221q-186 0 -293 112q-106 113 -107 308v678h236v-613q-1 -123 67 -193t196 -70q128 1 209 96t81 243v537h235zM844 1282q-53 0 -89 37t-36 93t36 93t89 37t88 -37t35 -93t-35 -93t-88 -37zM481 1282q-53 0 -89 37t-36 93
t36 93t89 37t88 -37t35 -93t-35 -93t-88 -37z" />
    <glyph glyph-name="yacute" unicode="&#xfd;" horiz-adv-x="1087" 
d="M248 -408q-141 0 -252 93l100 182q74 -53 142 -53q111 0 165 120l37 82l-450 1074h243l326 -826l303 826h236l-496 -1240q-102 -258 -354 -258zM868 1446l-250 -201h-208l217 303z" />
    <glyph glyph-name="thorn" unicode="&#xfe;" horiz-adv-x="1392" 
d="M751.5 193q145.5 0 238.5 99t93 255t-93 255t-238.5 99t-238.5 -99.5t-93 -255t93 -254.5t238.5 -99zM787.5 1098q244.5 0 389 -155t144.5 -401.5t-141.5 -398t-389 -151.5t-370.5 196v-585h-236v1917h236v-619q123 197 367.5 197z" />
    <glyph glyph-name="ydieresis" unicode="&#xff;" horiz-adv-x="1087" 
d="M248 -408q-141 0 -252 93l100 182q74 -53 142 -53q111 0 165 120l37 82l-450 1074h243l326 -826l303 826h236l-496 -1240q-102 -258 -354 -258zM729 1542q53 0 88 -37t35 -93t-35 -93t-88 -37t-89 37t-36 93t36 93t89 37zM367 1542q53 0 88 -37t35 -93t-36 -93
q-34 -37 -87 -37t-89 37t-36 93t36 93t89 37z" />
    <glyph glyph-name="Amacron" unicode="&#x100;" horiz-adv-x="1511" 
d="M1022 539l-270 637l-271 -637h541zM1114 324h-723l-137 -324h-252l633 1434h248l626 -1434h-258zM1018 1657h-522v170h522v-170z" />
    <glyph glyph-name="amacron" unicode="&#x101;" horiz-adv-x="1200" 
d="M530 483q-117 1 -171 -33t-54 -110q1 -76 57 -120t168 -44t198 58q87 58 97 149v100h-295zM825 688q-1 219 -277 219q-144 0 -304 -110l-97 164q125 73 225 105t244 32q209 0 324 -102t117 -281l2 -715h-232v133q-117 -143 -360 -143q-174 0 -279 95q-104 95 -104 244
t109 237t303 89h329v33zM856 1313h-522v170h522v-170z" />
    <glyph glyph-name="Abreve" unicode="&#x102;" horiz-adv-x="1511" 
d="M1022 539l-270 637l-271 -637h541zM1114 324h-723l-137 -324h-252l633 1434h248l626 -1434h-258zM756 1585q-123 0 -204 81t-85 210h160q4 -59 40 -96t89 -37t89 37t40 96h159q-4 -129 -84 -210t-204 -81z" />
    <glyph glyph-name="abreve" unicode="&#x103;" horiz-adv-x="1200" 
d="M530 483q-117 1 -171 -33t-54 -110q1 -76 57 -120t168 -44t198 58q87 58 97 149v100h-295zM825 688q-1 219 -277 219q-144 0 -304 -110l-97 164q125 73 225 105t244 32q209 0 324 -102t117 -281l2 -715h-232v133q-117 -143 -360 -143q-174 0 -279 95q-104 95 -104 244
t109 237t303 89h329v33zM594 1241q-123 0 -204 81t-85 210h160q4 -59 40 -96t89 -37t89 37t40 96h160q-4 -129 -85 -210t-204 -81z" />
    <glyph glyph-name="Aogonek" unicode="&#x104;" horiz-adv-x="1511" 
d="M479 537h549l-274 639zM1405 -281q49 0 100 66l68 -80q-72 -117 -195 -117q-66 0 -114 41t-47 130q0 89 106 241h-70l-139 324h-721l-139 -324h-252l633 1434h250l626 -1434h-67q-100 -141 -100 -211t61 -70z" />
    <glyph glyph-name="aogonek" unicode="&#x105;" horiz-adv-x="1208" 
d="M827 483h-297q-119 1 -172 -33t-53 -110t56 -120t166 -44t203 62t97 143v102zM616 1098q209 0 324 -102t119 -281v-715h-70q-102 -141 -102 -211t61 -70q49 0 101 66l67 -80q-74 -117 -194 -117q-66 0 -114 40t-48 133t110 239h-43v133q-117 -143 -360 -143
q-174 0 -279 95q-104 95 -104 244t109 237t301 89h331v33q-4 219 -262 219q-158 0 -319 -110l-97 164q125 73 223 105t246 32z" />
    <glyph glyph-name="Cacute" unicode="&#x106;" horiz-adv-x="1427" 
d="M823 1440q152 0 296.5 -58.5t248.5 -162.5l-141 -177q-78 84 -184.5 133.5t-215.5 49.5q-215 0 -363.5 -146.5t-148.5 -358.5t148.5 -358.5t367.5 -146.5t396 170l143 -160q-111 -109 -258 -172t-297 -63q-315 0 -530 210t-215 517t218 515t535 208zM1083 1790l-249 -201
h-209l217 303z" />
    <glyph glyph-name="cacute" unicode="&#x107;" horiz-adv-x="1155" 
d="M621 1098q295 0 450 -178l-129 -152q-123 125 -311 123q-141 0 -232.5 -97.5t-91.5 -251t91 -250.5t233 -97q209 0 321 131l131 -131q-154 -203 -462 -203q-244 0 -396.5 152.5t-152.5 399.5t152.5 400.5t396.5 153.5zM909 1446l-250 -201h-208l217 303z" />
    <glyph glyph-name="Ccaron" unicode="&#x10c;" horiz-adv-x="1427" 
d="M823 1440q152 0 296.5 -58.5t248.5 -162.5l-141 -177q-78 84 -184.5 133.5t-215.5 49.5q-215 0 -363.5 -146.5t-148.5 -358.5t148.5 -358.5t367.5 -146.5t396 170l143 -160q-111 -109 -258 -172t-297 -63q-315 0 -530 210t-215 517t218 515t535 208zM418 1884h209
l129 -190l129 190h209l-222 -307h-233z" />
    <glyph glyph-name="ccaron" unicode="&#x10d;" horiz-adv-x="1155" 
d="M621 1098q295 0 450 -178l-129 -152q-123 125 -311 123q-141 0 -232.5 -97.5t-91.5 -251t91 -250.5t233 -97q209 0 321 131l131 -131q-154 -203 -462 -203q-244 0 -396.5 152.5t-152.5 399.5t152.5 400.5t396.5 153.5zM246 1540h209l129 -190l129 190h209l-222 -307h-233
z" />
    <glyph glyph-name="Dcaron" unicode="&#x10e;" horiz-adv-x="1587" 
d="M430 1217v-1000h352q211 0 352 140q140 139 140 357t-144 360t-358 143h-342zM188 1434h588q322 0 532 -203t210 -514t-211 -514t-537 -203h-582v1434zM403 1884h209l129 -190l129 190h209l-221 -307h-233z" />
    <glyph glyph-name="dcaron" unicode="&#x10f;" horiz-adv-x="1472" 
d="M643 186q147 0 241 100t93 256q0 157 -93 257q-92 100 -240 100t-242 -100t-93 -257q-1 -156 93 -256t241 -100zM1460 1403q53 0 90 -36t37 -93t-37 -111l-116 -176h-121l78 178q-55 37 -55 101t35 100q36 37 89 37zM977 1520h235v-1520h-235v186q-121 -197 -383 -196
q-233 0 -378 154q-144 155 -144 403q0 249 143 401t375 152q262 0 387 -199v619z" />
    <glyph glyph-name="Dcroat" unicode="&#x110;" horiz-adv-x="1587" 
d="M430 1217v-1000h352q211 0 352 140q140 139 140 357t-144 360t-358 143h-342zM188 1434h588q322 0 532 -203t210 -514t-211 -514t-537 -203h-582v1434zM1010 1657h-523v170h523v-170z" />
    <glyph glyph-name="dcroat" unicode="&#x111;" horiz-adv-x="1390" 
d="M643 186q147 0 241 100t93 256q0 157 -93 257q-92 100 -240 100t-242 -100t-93 -257q-1 -156 93 -256t241 -100zM1354 1262h-142v-1262h-235v186q-121 -197 -383 -196q-233 0 -378 154q-144 155 -144 403q0 249 143 401t375 152q262 0 387 -199v361h-203v135h203v123h235
v-123h142v-135z" />
    <glyph glyph-name="Emacron" unicode="&#x112;" horiz-adv-x="1343" 
d="M1212 1217h-782v-388h700v-217h-700v-395h807v-217h-1049v1434h1024v-217zM967 1657h-523v170h523v-170z" />
    <glyph glyph-name="emacron" unicode="&#x113;" horiz-adv-x="1204" 
d="M627 909q-131 0 -216.5 -75.5t-105.5 -206.5h623q-6 131 -88 206.5t-213 75.5zM647 182q184 0 307 127l125 -133q-168 -184 -435 -184t-419.5 152.5t-152.5 398t153.5 399.5t397.5 156q281 0 406.5 -169t103.5 -474h-824q29 -127 119 -200t219 -73zM872 1313h-522v170
h522v-170z" />
    <glyph glyph-name="Edotaccent" unicode="&#x116;" horiz-adv-x="1343" 
d="M1212 1217h-782v-388h700v-217h-700v-395h807v-217h-1049v1434h1024v-217zM704.5 1888q59.5 0 98.5 -40t39 -102t-39 -102t-98.5 -40t-98.5 40t-39 102t39 102t98.5 40z" />
    <glyph glyph-name="edotaccent" unicode="&#x117;" horiz-adv-x="1204" 
d="M627 909q-131 0 -216.5 -75.5t-105.5 -206.5h623q-6 131 -88 206.5t-213 75.5zM647 182q184 0 307 127l125 -133q-168 -184 -435 -184t-419.5 152.5t-152.5 398t153.5 399.5t397.5 156q281 0 406.5 -169t103.5 -474h-824q29 -127 119 -200t219 -73zM612.5 1260
q-59.5 0 -98.5 39.5t-39 102t39 102.5t98.5 40t98.5 -40t39 -102t-39 -102t-98.5 -40z" />
    <glyph glyph-name="Eogonek" unicode="&#x118;" horiz-adv-x="1361" 
d="M1231 1233h-801v-406h719v-198h-719v-428h825v-201h-135q-102 -141 -102 -215q0 -31 17 -48t44 -18q51 0 103 66l67 -80q-78 -117 -196 -117q-66 0 -113 41t-47 131t106 240h-811v1434h1043v-201z" />
    <glyph glyph-name="eogonek" unicode="&#x119;" horiz-adv-x="1204" 
d="M627 909q-131 0 -220 -78t-102 -204h623q-6 127 -88 205t-213 77zM647 180q182 0 307 129l125 -133q-213 -252 -213 -387q0 -70 62 -70q49 0 98 66l68 -80q-76 -117 -193 -117q-68 0 -115 40t-47 122q0 133 129 307q-111 -66 -250 -65q-242 0 -394 154t-152 397t146 395
t409 159q264 7 396 -165t112 -477h-826q29 -127 116 -201t222 -74z" />
    <glyph glyph-name="Ecaron" unicode="&#x11a;" horiz-adv-x="1343" 
d="M1212 1217h-782v-388h700v-217h-700v-395h807v-217h-1049v1434h1024v-217zM360 1884h209l129 -190l129 190h209l-221 -307h-233z" />
    <glyph glyph-name="ecaron" unicode="&#x11b;" horiz-adv-x="1204" 
d="M627 909q-131 0 -216.5 -75.5t-105.5 -206.5h623q-6 131 -88 206.5t-213 75.5zM647 182q184 0 307 127l125 -133q-168 -184 -435 -184t-419.5 152.5t-152.5 398t153.5 399.5t397.5 156q281 0 406.5 -169t103.5 -474h-824q29 -127 119 -200t219 -73zM489 1233l-221 307
h209l129 -190l129 190h209l-221 -307h-234z" />
    <glyph glyph-name="Gbreve" unicode="&#x11e;" horiz-adv-x="1533" 
d="M1169 705h211v-529q-111 -84 -261 -135t-296 -51q-317 0 -535 210t-218 517t221 515t547 208q152 0 298 -54.5t253 -146.5l-138 -178q-176 164 -404 164t-380 -147.5t-152 -361.5t153 -361.5t372 -147.5q166 0 329 98v400zM792.5 1585q-122.5 0 -203.5 81t-85 210h160
q4 -59 39.5 -96t89 -37t89.5 37t40 96h159q-4 -129 -85 -210t-203.5 -81z" />
    <glyph glyph-name="gbreve" unicode="&#x11f;" horiz-adv-x="1310" 
d="M608 238q139 0 228 94q88 94 88 241t-87 241t-227 93q-140 0 -227 -93q-88 -92 -88 -240t87 -242t226 -94zM1157 1090v-984q1 -233 -153 -371t-404 -138t-461 143l101 170q160 -119 329 -119t261 84t94 225v138q-114 -184 -348 -184t-369 144q-135 146 -135 380t133 375
q133 142 350 145q250 2 369 -185v177h233zM655 1241q-123 0 -203 81t-85 210h159q4 -59 40 -96t89 -37t89 37t40 96h160q-4 -129 -85 -210t-204 -81z" />
    <glyph glyph-name="Gcommaaccent" unicode="&#x122;" horiz-adv-x="1533" 
d="M803 -100q53 0 90 -36t37 -92t-37 -110l-117 -176h-121l78 176q-55 37 -55 100.5t36 100.5t89 37zM1169 705h211v-529q-111 -84 -261 -135t-296 -51q-317 0 -535 210t-218 517t221 515t547 208q152 0 298 -54.5t253 -146.5l-138 -178q-176 164 -404 164t-380 -147.5
t-152 -361.5t153 -361.5t372 -147.5q166 0 329 98v400z" />
    <glyph glyph-name="gcommaaccent" unicode="&#x123;" horiz-adv-x="1310" 
d="M608 238q139 0 228 94q88 94 88 241t-87 241t-227 93q-140 0 -227 -93q-88 -92 -88 -240t87 -242t226 -94zM1157 1090v-984q1 -233 -153 -371t-404 -138t-461 143l101 170q160 -119 329 -119t261 84t94 225v138q-114 -184 -348 -184t-369 144q-135 146 -135 380t133 375
q133 142 350 145q250 2 369 -185v177h233zM645 1190q-53 0 -90 36t-37 92t37 109l117 177h121l-78 -177q55 -37 55 -100t-36 -100t-89 -37z" />
    <glyph glyph-name="hbar" unicode="&#x127;" horiz-adv-x="1669" 
d="M823 1098q190 0 298 -112t108 -308v-678h-236v612q0 123 -69.5 194t-202.5 70t-217 -96.5t-84 -242.5v-537h-236v1206h-172v142h172v172h236v-172h289v-142h-289v-329q112 221 403 221z" />
    <glyph glyph-name="Itilde" unicode="&#x128;" horiz-adv-x="618" 
d="M430 0h-242v1434h242v-1434zM168 1896q61 0 138 -56t106 -56q78 0 77 100h150q0 -268 -186 -268q-68 0 -143 56t-103 57q-76 0 -76 -101h-151q0 268 188 268z" />
    <glyph glyph-name="itilde" unicode="&#x129;" horiz-adv-x="581" 
d="M408 0h-234v1090h234v-1090zM150 1552q61 0 138 -56t105 -56q78 0 78 100h150q0 -268 -187 -268q-68 0 -142 56t-104 56q-76 0 -75 -100h-152q1 268 189 268z" />
    <glyph glyph-name="Imacron" unicode="&#x12a;" horiz-adv-x="618" 
d="M430 0h-242v1434h242v-1434zM571 1657h-522v170h522v-170z" />
    <glyph glyph-name="imacron" unicode="&#x12b;" horiz-adv-x="581" 
d="M408 0h-234v1090h234v-1090zM553 1313h-522v170h522v-170z" />
    <glyph glyph-name="Iogonek" unicode="&#x12e;" horiz-adv-x="618" 
d="M281 -210q0 -69 59 -71q51 0 102 66l68 -80q-74 -117 -195 -117q-65 0 -113 40t-48 130t106 242h-72v1434h242v-1434h-49q-100 -141 -100 -210z" />
    <glyph glyph-name="iogonek" unicode="&#x12f;" horiz-adv-x="546" 
d="M395 0h-49q-100 -141 -100 -211t61 -70q49 0 101 66l67 -80q-74 -117 -194 -117q-66 0 -114 40t-48 130t106 242h-65v1090h235v-1090zM276 1544q58 0 98 -40t40 -103t-39 -103t-99 -41q-60 0 -98 40q-39 39 -39 103t39 104t98 40z" />
    <glyph glyph-name="Idotaccent" unicode="&#x130;" horiz-adv-x="618" 
d="M430 0h-242v1434h242v-1434zM309 1888q59 0 99 -40t38 -102q0 -62 -38 -102t-98 -40t-99 40t-39 102t39 102t98 40z" />
    <glyph glyph-name="dotlessi" unicode="&#x131;" horiz-adv-x="581" 
d="M408 0h-234v1090h234v-1090z" />
    <glyph glyph-name="IJ" unicode="&#x132;" horiz-adv-x="1640" 
d="M1483 1434v-992q0 -216 -119 -334t-328 -118q-254 0 -422 207l115 184q145 -158 305 -158q98 1 152 59t53 169v766h-496v217h740zM430 0h-242v1434h242v-1434z" />
    <glyph glyph-name="ij" unicode="&#x133;" horiz-adv-x="1169" 
d="M987 1090v-1121q0 -182 -104 -279q-103 -98 -239 -98t-236 74l77 182q69 -49 133 -49t100 37t36 111v1143h233zM408 0h-234v1090h234v-1090zM871 1544q61 0 103 -40t42 -102t-41 -104t-103 -41q-62 0 -104 41q-41 42 -41 104t41 102t103 40zM291 1544q59 0 98 -40
t39 -102t-39 -102t-98 -40t-98 40t-39 102t39 102t98 40z" />
    <glyph glyph-name="Jcircumflex" unicode="&#x134;" horiz-adv-x="1021" 
d="M864 1434v-992q0 -216 -119 -334t-327 -118q-254 0 -422 207l115 184q145 -158 305 -158q98 1 151 59t54 169v766h-496v217h739zM807 1595h-193l-127 181l-127 -181h-192l211 289h217z" />
    <glyph glyph-name="jcircumflex" unicode="&#x135;" horiz-adv-x="561" 
d="M408 1090v-1139q0 -172 -88 -265q-88 -92 -242 -90t-264 72l59 172q70 -45 147 -48q152 -6 152 194v1104h236zM600 1251h-192l-127 181l-127 -181h-193l211 289h217z" />
    <glyph glyph-name="Kcommaaccent" unicode="&#x136;" horiz-adv-x="1470" 
d="M733 -100q53 0 90 -36t37 -92t-37 -110l-116 -176h-121l78 176q-55 37 -55.5 100.5t35.5 100.5t89 37zM430 0h-242v1434h242v-742l684 742h285l-555 -613l592 -821h-291l-471 633l-244 -268v-365z" />
    <glyph glyph-name="kcedilla" unicode="&#x137;" horiz-adv-x="1218" 
d="M227.5 -453q-100.5 0 -176.5 56l47 110q45 -39 100.5 -39t85 28t28.5 68t-28.5 64.5t-57 24.5t-79.5 -6l70 147h-33v1520h236v-918l481 488h270l-403 -422l434 -668h-278l-320 500l-184 -195v-305h-66l-47 -96q63 -10 102.5 -53.5t41.5 -118t-60.5 -130t-163 -55.5z" />
    <glyph glyph-name="kgreenlandic" unicode="&#x138;" horiz-adv-x="1208" 
d="M408 0h-234v1090h234v-488l483 488h270l-403 -422l434 -668h-279l-317 500l-188 -197v-303z" />
    <glyph glyph-name="Lacute" unicode="&#x139;" horiz-adv-x="1093" 
d="M430 219h621v-219h-863v1434h242v-1215zM635 1790l-250 -201h-209l217 303z" />
    <glyph glyph-name="lacute" unicode="&#x13a;" horiz-adv-x="604" 
d="M420 0h-236v1520h236v-1520zM625 1876l-250 -201h-209l217 303z" />
    <glyph glyph-name="Lcommaaccent" unicode="&#x13b;" horiz-adv-x="1093" 
d="M604 -100q53 0 90 -36t37 -92t-37 -110l-116 -176h-121l78 176q-55 37 -55.5 100.5t35.5 100.5t89 37zM1051 219v-219h-863v1434h242v-1215h621z" />
    <glyph glyph-name="lcommaaccent" unicode="&#x13c;" horiz-adv-x="604" 
d="M313 -100q53 0 90 -36t37 -92t-37 -110l-116 -176h-121l78 176q-55 37 -55.5 100.5t35.5 100.5t89 37zM420 0h-236v1520h236v-1520z" />
    <glyph glyph-name="Lcaron" unicode="&#x13d;" horiz-adv-x="1093" 
d="M770 1233q0 63 36 100t89 37t90 -36t37 -93t-37 -111l-117 -176h-120l77 179q-55 37 -55 100zM1051 219v-219h-863v1434h242v-1215h621z" />
    <glyph glyph-name="lcaron" unicode="&#x13e;" horiz-adv-x="655" 
d="M643 1403q53 0 90 -36t37 -93t-37 -111l-117 -176h-120l77 178q-55 37 -55 100.5t36 100.5t89 37zM184 1520h236v-1520h-236v1520z" />
    <glyph glyph-name="Ldot" unicode="&#x13f;" horiz-adv-x="1093" 
d="M811 1081q53 0 88 -35.5t35 -93t-35 -94.5t-88 -37t-88 37t-35 94.5t35 93t88 35.5zM430 219h621v-219h-863v1434h242v-1215z" />
    <glyph glyph-name="ldot" unicode="&#x140;" horiz-adv-x="681" 
d="M622 766q54 0 90 -38t36 -94t-36 -93t-90 -37t-90 37t-36 93t36 94t90 38zM420 0h-236v1520h236v-1520z" />
    <glyph glyph-name="Lslash" unicode="&#x141;" horiz-adv-x="1128" 
d="M1085 219v-219h-862v754l-170 -49l-41 155l211 62v512h240v-441l328 97l40 -158l-368 -109v-604h622z" />
    <glyph glyph-name="lslash" unicode="&#x142;" horiz-adv-x="634" 
d="M455 0h-236v795l-221 -66l-41 156l262 78v557h236v-488l194 58l41 -158l-235 -70v-862z" />
    <glyph glyph-name="Nacute" unicode="&#x143;" horiz-adv-x="1622" 
d="M1432 0h-238l-764 1028v-1028h-242v1434h238l768 -1031v1031h238v-1434zM1133 1790l-250 -201h-209l217 303z" />
    <glyph glyph-name="nacute" unicode="&#x144;" horiz-adv-x="1357" 
d="M811 1098q190 0 298 -112t108 -308v-678h-236v612q0 123 -69.5 194t-196.5 70t-210 -83t-95 -213v-580h-236v1090h236v-209q110 217 401 217zM780 1245h-209l217 303l242 -102z" />
    <glyph glyph-name="Ncommaaccent" unicode="&#x145;" horiz-adv-x="1622" 
d="M821 -100q53 0 90 -36t37 -92t-37 -110l-116 -176h-121l78 176q-55 37 -55.5 100.5t35.5 100.5t89 37zM1432 1434v-1434h-238l-764 1028v-1028h-242v1434h238l768 -1031v1031h238z" />
    <glyph glyph-name="ncommaaccent" unicode="&#x146;" horiz-adv-x="1357" 
d="M698 -100q53 0 90 -36t37 -92t-37 -110l-116 -176h-121l78 176q-55 37 -55.5 100.5t35.5 100.5t89 37zM811 1098q190 0 298 -112t108 -308v-678h-236v612q0 123 -69.5 194t-196.5 70t-210 -83t-95 -213v-580h-236v1090h236v-209q110 217 401 217z" />
    <glyph glyph-name="Ncaron" unicode="&#x147;" horiz-adv-x="1622" 
d="M1432 0h-238l-764 1028v-1028h-242v1434h238l768 -1031v1031h238v-1434zM467 1884h209l129 -190l129 190h209l-221 -307h-234z" />
    <glyph glyph-name="ncaron" unicode="&#x148;" horiz-adv-x="1357" 
d="M811 1098q190 0 298 -112t108 -308v-678h-236v612q0 123 -69.5 194t-196.5 70t-210 -83t-95 -213v-580h-236v1090h236v-209q110 217 401 217zM586 1233l-221 307h208l129 -190l129 190h209l-221 -307h-233z" />
    <glyph glyph-name="Omacron" unicode="&#x14c;" horiz-adv-x="1658" 
d="M830 1223q-212 -1 -364 -147t-151 -359q0 -213 153 -361q154 -148 364 -149q210 0 360 148q150 147 150 361t-150 360t-362 147zM829 1440q322 0 541 -208t219 -515t-219 -517t-541 -210q-323 0 -541 210t-218 517t218 515t541 208zM1081 1657h-522v170h522v-170z" />
    <glyph glyph-name="omacron" unicode="&#x14d;" horiz-adv-x="1280" 
d="M640 895q-146 0 -240 -98t-93 -255q0 -157 93 -255q92 -99 240 -99t240 98t93 256q0 157 -93 255q-94 98 -240 98zM640 1098q253 0 411 -153q157 -153 157 -399t-158 -401q-158 -153 -410 -153q-253 0 -411 154q-157 154 -157 400q0 248 158 400t410 152zM901 1313h-522
v170h522v-170z" />
    <glyph glyph-name="Ohungarumlaut" unicode="&#x150;" horiz-adv-x="1658" 
d="M830 1223q-212 -1 -364 -147t-151 -359q0 -213 153 -361q154 -148 364 -149q210 0 360 148q150 147 150 361t-150 360t-362 147zM829 1440q322 0 541 -208t219 -515t-219 -517t-541 -210q-323 0 -541 210t-218 517t218 515t541 208zM1229 1810l-189 -225h-182l170 316z
M891 1810l-189 -225h-182l170 316z" />
    <glyph glyph-name="ohungarumlaut" unicode="&#x151;" horiz-adv-x="1280" 
d="M640 895q-146 0 -240 -98t-93 -255q0 -157 93 -255q92 -99 240 -99t240 98t93 256q0 157 -93 255q-94 98 -240 98zM640 1098q253 0 411 -153q157 -153 157 -399t-158 -401q-158 -153 -410 -153q-253 0 -411 154q-157 154 -157 400q0 248 158 400t410 152zM1051 1466
l-189 -225h-182l170 315zM713 1466l-189 -225h-182l170 315z" />
    <glyph glyph-name="OE" unicode="&#x152;" horiz-adv-x="2246" 
d="M1092 217v997h-263q-217 0 -365.5 -143t-148.5 -356t148.5 -355.5t365.5 -142.5h263zM2140 217v-217h-1313q-319 0 -538 207t-219 509t219 510t538 208h1289v-217h-783v-390h701v-215h-701v-395h807z" />
    <glyph glyph-name="oe" unicode="&#x153;" horiz-adv-x="2129" 
d="M641 188q147 0 239 98t93 256q0 157 -93 255q-94 98 -240 98t-240 -98t-93 -255q-1 -158 93 -256t241 -98zM1523 924q-133 0 -221 -83t-106 -220h631q-4 135 -88 219t-216 84zM1520 1098q254 0 402 -166t140 -438h-866q18 -144 112 -228t236 -84q182 0 309 127l125 -133
q-172 -184 -466 -184t-427 241q-137 -242 -444 -241q-254 0 -412 154q-157 154 -157 400q0 248 158 400t411 152q153 0 267 -64t177 -178q140 242 435 242z" />
    <glyph glyph-name="Racute" unicode="&#x154;" horiz-adv-x="1480" 
d="M430 649h340q348 0 348 289q0 279 -348 279h-340v-568zM770 432h-340v-432h-242v1434h582q274 0 426 -128t152 -362q0 -172 -77 -290.5t-220 -174.5l321 -479h-274l-262 434q-20 -2 -66 -2zM799 1589h-209l217 303l242 -102z" />
    <glyph glyph-name="racute" unicode="&#x155;" horiz-adv-x="806" 
d="M410 1090v-218q113 225 376 226v-226q-162 8 -262 -75.5t-114 -227.5v-569h-236v1090h236zM487 1245h-208l217 303l241 -102z" />
    <glyph glyph-name="Rcommaaccent" unicode="&#x156;" horiz-adv-x="1480" 
d="M748 -100q53 0 89.5 -36t36.5 -92t-36 -110l-117 -176h-121l78 176q-55 37 -55 100.5t36 100.5t89 37zM430 649h340q348 0 348 289q0 279 -348 279h-340v-568zM770 432h-340v-432h-242v1434h582q274 0 426 -128t152 -362q0 -172 -77 -290.5t-220 -174.5l321 -479h-274
l-262 434q-20 -2 -66 -2z" />
    <glyph glyph-name="rcommaaccent" unicode="&#x157;" horiz-adv-x="806" 
d="M297 -100q53 0 90 -36t37 -92t-37 -110l-117 -176h-120l77 176q-55 37 -55 100.5t36 100.5t89 37zM410 1090v-218q113 225 376 226v-226q-162 8 -262 -75.5t-114 -227.5v-569h-236v1090h236z" />
    <glyph glyph-name="Rcaron" unicode="&#x158;" horiz-adv-x="1480" 
d="M430 649h340q348 0 348 289q0 279 -348 279h-340v-568zM770 432h-340v-432h-242v1434h582q274 0 426 -128t152 -362q0 -172 -77 -290.5t-220 -174.5l321 -479h-274l-262 434q-20 -2 -66 -2zM604 1577l-221 307h209l129 -190l129 190h209l-221 -307h-234z" />
    <glyph glyph-name="rcaron" unicode="&#x159;" horiz-adv-x="806" 
d="M410 1090v-218q113 225 376 226v-226q-162 8 -262 -75.5t-114 -227.5v-569h-236v1090h236zM293 1233l-221 307h209l129 -190l129 190h209l-222 -307h-233z" />
    <glyph glyph-name="Sacute" unicode="&#x15a;" horiz-adv-x="1273" 
d="M680.5 1444q257.5 0 480.5 -148l-100 -213q-219 133 -420 134q-109 0 -171 -39t-62 -111t57 -122t143 -73.5t186.5 -59.5t186.5 -76t142.5 -125t56.5 -205q0 -188 -150.5 -301t-390.5 -113q-164 0 -317.5 61.5t-268.5 165.5l105 209q109 -100 238.5 -154.5t251.5 -54.5
t192.5 46t70.5 124t-57 128t-143 73.5t-186.5 57.5t-186.5 72t-143.5 122t-57.5 202q0 182 143 291t400.5 109zM975 1790l-250 -201h-209l217 303z" />
    <glyph glyph-name="sacute" unicode="&#x15b;" horiz-adv-x="962" 
d="M500 1100q225 0 381 -111l-86 -174q-156 96 -315 96t-158 -108q0 -53 59 -88t144 -58.5t170 -55.5t144.5 -103.5t59.5 -182.5q0 -158 -120 -240.5t-298 -82.5q-123 0 -240.5 40t-197.5 111l84 168q70 -61 171 -98q102 -37 188 -37q184 0 184 117q0 61 -59.5 98
t-143.5 59.5t-168 53.5t-142.5 101.5t-58.5 178.5q0 156 116 236t286 80zM815 1446l-250 -201h-209l217 303z" />
    <glyph glyph-name="Scedilla" unicode="&#x15e;" horiz-adv-x="1273" 
d="M702 -102q144 -26 144 -174q0 -76 -62.5 -129.5t-159.5 -53.5t-175 58l45 110q53 -41 107 -41t80 25.5t26 58.5t-26 55.5t-67 22.5t-77 -10l73 172q-322 12 -557 227l105 209q109 -100 238.5 -154.5t251.5 -54.5t192.5 46t70.5 124t-57 128t-143 73.5t-186.5 57.5
t-186.5 72t-143.5 122t-57.5 202q0 182 143.5 291t400.5 109t480 -148l-100 -213q-219 133 -420 134q-109 0 -171 -39t-62 -111t57 -122t143 -73.5t186.5 -59.5t186.5 -76t142.5 -125t56.5 -205q0 -166 -117 -273.5t-313 -134.5z" />
    <glyph glyph-name="scedilla" unicode="&#x15f;" horiz-adv-x="962" 
d="M535 -102q143 -26 143 -174q0 -76 -62.5 -129.5t-159.5 -53.5t-175 58l45 110q53 -41 107 -41t80 25.5t26 58.5t-26 55.5t-67 22.5t-77 -10l73 174q-244 10 -399 149l84 168q70 -61 171 -98q102 -37 188 -37q184 0 184 117q0 61 -59.5 98t-143.5 59.5t-168 53.5
t-142.5 101.5t-58.5 178.5q0 156 116 236t286 80q225 0 381 -111l-86 -174q-156 96 -314.5 96.5t-158.5 -108.5q0 -53 59 -88t144 -58.5t170 -55.5t144.5 -103.5t59.5 -194.5t-88 -203t-227 -100z" />
    <glyph glyph-name="Scaron" unicode="&#x160;" horiz-adv-x="1273" 
d="M680.5 1444q257.5 0 480.5 -148l-100 -213q-219 133 -420 134q-109 0 -171 -39t-62 -111t57 -122t143 -73.5t186.5 -59.5t186.5 -76t142.5 -125t56.5 -205q0 -188 -150.5 -301t-390.5 -113q-164 0 -317.5 61.5t-268.5 165.5l105 209q109 -100 238.5 -154.5t251.5 -54.5
t192.5 46t70.5 124t-57 128t-143 73.5t-186.5 57.5t-186.5 72t-143.5 122t-57.5 202q0 182 143 291t400.5 109zM309 1884h209l129 -190l129 190h209l-221 -307h-234z" />
    <glyph glyph-name="scaron" unicode="&#x161;" horiz-adv-x="962" 
d="M500 1100q225 0 381 -111l-86 -174q-156 96 -315 96t-158 -108q0 -53 59 -88t144 -58.5t170 -55.5t144.5 -103.5t59.5 -182.5q0 -158 -120 -240.5t-298 -82.5q-123 0 -240.5 40t-197.5 111l84 168q70 -61 171 -98q102 -37 188 -37q184 0 184 117q0 61 -59.5 98
t-143.5 59.5t-168 53.5t-142.5 101.5t-58.5 178.5q0 156 116 236t286 80zM150 1540h208l129 -190l129 190h209l-221 -307h-233z" />
    <glyph glyph-name="Tcedilla" unicode="&#x162;" horiz-adv-x="1185" 
d="M764 -276q0 -76 -62.5 -129.5t-159.5 -53.5t-175 58l45 110q53 -41 107 -41t80 25.5t26 58.5t-26 55.5t-67 22.5t-77 -10l75 180h-59v1217h-453v217h1149v-217h-454v-1217h-43l-49 -102q143 -26 143 -174z" />
    <glyph glyph-name="tcedilla" unicode="&#x163;" horiz-adv-x="833" 
d="M700 -276q0 -76 -62.5 -129.5t-159.5 -53.5t-175 58l45 110q53 -41 107.5 -41t80 25.5t25.5 58.5t-25.5 55.5t-66.5 22.5t-78 -10l74 174q-111 16 -179.5 95t-68.5 218v565h-154v177h154v299h234v-299h321v-177h-321v-522q0 -82 28.5 -114.5t91 -32.5t160.5 47l60 -180
q-91 -56 -187 -72l-47 -100q143 -26 143 -174z" />
    <glyph glyph-name="Tcaron" unicode="&#x164;" horiz-adv-x="1185" 
d="M1167 1217h-454v-1217h-242v1217h-453v217h1149v-217zM264 1884h209l129 -190l129 190h209l-221 -307h-234z" />
    <glyph glyph-name="tcaron" unicode="&#x165;" horiz-adv-x="782" 
d="M570.5 203q62.5 0 160.5 47l60 -180q-135 -80 -268.5 -80t-219.5 80t-86 237v565h-154v177h154v299h234v-299h321v-177h-321v-522q0 -82 28.5 -114.5t91 -32.5zM715 1616q53 0 90 -36t37 -93t-37 -111l-117 -176h-121l78 178q-55 37 -55 100.5t36 100.5t89 37z" />
    <glyph glyph-name="Umacron" unicode="&#x16a;" horiz-adv-x="1564" 
d="M1407 1434v-840q0 -280 -166 -442t-457 -162q-292 0 -458 162t-166 442v840h241v-840q-1 -180 103 -284t281 -103q177 0 279 102q101 102 101 285v840h242zM1044 1657h-522v170h522v-170z" />
    <glyph glyph-name="umacron" unicode="&#x16b;" horiz-adv-x="1337" 
d="M1163 1090v-1090h-235v213q-106 -217 -389 -221q-186 0 -293 112q-106 113 -107 308v678h236v-613q-1 -123 67 -193t196 -70q128 1 209 96t81 243v537h235zM924 1313h-523v170h523v-170z" />
    <glyph glyph-name="Uring" unicode="&#x16e;" horiz-adv-x="1564" 
d="M1407 1434v-840q0 -280 -166 -442t-457 -162q-292 0 -458 162t-166 442v840h241v-840q-1 -180 103 -284t281 -103q177 0 279 102q101 102 101 285v840h242zM782 1878q-57 0 -98 -39t-41 -92t41 -92t98 -39t99 39q41 39 41 92t-41 92q-42 39 -99 39zM782 1985
q100 0 171 -71t71 -168t-71 -167t-171 -70t-171 70t-71 167t71 168t171 71z" />
    <glyph glyph-name="uring" unicode="&#x16f;" horiz-adv-x="1337" 
d="M1163 1090v-1090h-235v213q-106 -217 -389 -221q-186 0 -293 112q-106 113 -107 308v678h236v-613q-1 -123 67 -193t196 -70q128 1 209 96t81 243v537h235zM662 1534q-56 0 -98 -39t-42 -92t41 -92t99 -39t98 39q41 39 41 92t-41 92t-98 39zM662 1165q-100 0 -172 70
q-70 70 -70 167t70 168q72 70 172 70t171 -70t71 -168q0 -97 -72 -167q-70 -70 -170 -70z" />
    <glyph glyph-name="Uhungarumlaut" unicode="&#x170;" horiz-adv-x="1564" 
d="M1407 1434v-840q0 -280 -166 -442t-457 -162q-292 0 -458 162t-166 442v840h241v-840q-1 -180 103 -284t281 -103q177 0 279 102q101 102 101 285v840h242zM1192 1810l-188 -225h-183l170 316zM854 1810l-188 -225h-183l170 316z" />
    <glyph glyph-name="uhungarumlaut" unicode="&#x171;" horiz-adv-x="1337" 
d="M1163 1090v-1090h-235v213q-106 -217 -389 -221q-186 0 -293 112q-106 113 -107 308v678h236v-613q-1 -123 67 -193t196 -70q128 1 209 96t81 243v537h235zM700 1241l170 315l201 -90l-188 -225h-183zM545 1241h-183l170 315l201 -90z" />
    <glyph glyph-name="Uogonek" unicode="&#x172;" horiz-adv-x="1566" 
d="M918 -412q-66 0 -114 40t-48 130t98 234q-23 -2 -70 -2q-292 0 -458 162t-166 442v840h239v-840q1 -180 105 -284t281 -103q177 0 279 102q101 102 101 285v840h242v-840q0 -225 -110 -376t-306 -204q-109 -158 -109 -225t60 -70q51 0 102 66l68 -80q-74 -117 -194 -117z
" />
    <glyph glyph-name="uogonek" unicode="&#x173;" horiz-adv-x="1327" 
d="M1161 0h-51q-102 -137 -102 -209t61 -72q49 0 100 66l68 -80q-74 -117 -195 -117q-66 0 -114 41t-47 130q0 89 106 241h-59v203q-111 -207 -389 -211q-186 0 -292 111q-105 112 -106 309v678h234v-613q1 -123 69 -193t191 -70q123 1 202 84t91 212v580h233v-1090z" />
    <glyph glyph-name="Wcircumflex" unicode="&#x174;" horiz-adv-x="2121" 
d="M1663 0h-248l-340 1118l-344 -1118h-250l-475 1434h260l348 -1166l347 1164l237 2l348 -1166l346 1166h250zM1391 1595h-193l-127 181l-127 -181h-192l211 289h217z" />
    <glyph glyph-name="wcircumflex" unicode="&#x175;" horiz-adv-x="1828" 
d="M1442 0h-244l-276 807l-277 -807h-242l-401 1090h242l282 -857l275 857h243l277 -857l278 857h240zM1235 1251h-193l-127 181l-127 -181h-192l211 289h217z" />
    <glyph glyph-name="Ycircumflex" unicode="&#x176;" horiz-adv-x="1304" 
d="M776 0h-239v469l-535 965h244l409 -699l402 699h246l-527 -957v-477zM524 1595h-192l211 289h217l211 -289h-193l-127 181z" />
    <glyph glyph-name="ycircumflex" unicode="&#x177;" horiz-adv-x="1087" 
d="M248 -408q-141 0 -252 93l100 182q74 -53 142 -53q111 0 165 120l37 82l-450 1074h243l326 -826l303 826h236l-496 -1240q-102 -258 -354 -258zM866 1251h-192l-127 181l-127 -181h-193l211 289h217z" />
    <glyph glyph-name="Ydieresis" unicode="&#x178;" horiz-adv-x="1304" 
d="M776 0h-239v469l-535 965h244l409 -699l402 699h246l-527 -957v-477zM834 1626q-53 0 -90 37q-36 37 -36 93t36 93t90 37t88 -37t34 -93t-34 -93t-88 -37zM471 1626q-53 0 -89 37t-36 93t36 93t89 37t88 -37t35 -93t-35 -93t-88 -37z" />
    <glyph glyph-name="Zacute" unicode="&#x179;" horiz-adv-x="1363" 
d="M1286 217v-217h-1210v174l874 1043h-848v217h1174v-174l-873 -1043h883zM1022 1790l-250 -201h-209l217 303z" />
    <glyph glyph-name="zacute" unicode="&#x17a;" horiz-adv-x="1099" 
d="M111 897v193l895 -3v-157l-623 -737l641 -3v-192l-932 2v160l623 737h-604zM870 1446l-249 -201h-209l217 303z" />
    <glyph glyph-name="Zdotaccent" unicode="&#x17b;" horiz-adv-x="1363" 
d="M1286 217v-217h-1210v174l874 1043h-848v217h1174v-174l-873 -1043h883zM700 1888q58 0 98 -40t40 -102t-39 -102t-99 -40t-98 40q-39 40 -39 102t39 102t98 40z" />
    <glyph glyph-name="zdotaccent" unicode="&#x17c;" horiz-adv-x="1099" 
d="M111 897v193l895 -3v-157l-623 -737l641 -3v-192l-932 2v160l623 737h-604zM549 1544q59 0 98 -40t39 -102t-39 -102t-98 -40t-98 40t-39 102t39 102t98 40z" />
    <glyph glyph-name="Zcaron" unicode="&#x17d;" horiz-adv-x="1363" 
d="M1286 217v-217h-1210v174l874 1043h-848v217h1174v-174l-873 -1043h883zM356 1884h209l129 -190l129 190h209l-221 -307h-233z" />
    <glyph glyph-name="zcaron" unicode="&#x17e;" horiz-adv-x="1099" 
d="M111 897v193l895 -3v-157l-623 -737l641 -3v-192l-932 2v160l623 737h-604zM205 1540h209l129 -190l129 190h209l-222 -307h-233z" />
    <glyph glyph-name="florin" unicode="&#x192;" horiz-adv-x="761" 
d="M829 1288q-67 53 -144 54t-129 -48t-62 -133l-27 -211h287l-19 -164h-286l-105 -847q-20 -162 -116 -255q-96 -92 -237 -90q-142 2 -235 76l66 174q57 -51 130 -54q142 -6 163 183l100 813h-141l18 164h141l31 244q20 160 124 254t261 91q156 -3 264 -77z" />
    <glyph glyph-name="Scommaaccent" unicode="&#x218;" horiz-adv-x="1273" 
d="M657 -100q53 0 90 -36t37 -92t-36 -110l-117 -176h-121l78 176q-55 37 -55.5 100.5t35.5 100.5t89 37zM408 1067q0 -72 57 -122t143 -73.5t186.5 -59.5t186.5 -76t142.5 -125t56.5 -205q0 -188 -150.5 -301t-390.5 -113q-164 0 -317.5 61.5t-268.5 165.5l105 209
q109 -100 238.5 -154.5t251.5 -54.5t192.5 46t70.5 124t-57 128t-143 73.5t-186.5 57.5t-186.5 72t-143.5 122t-57.5 202q0 182 143.5 291t400.5 109t480 -148l-100 -213q-219 133 -420 134q-109 0 -171 -39t-62 -111z" />
    <glyph glyph-name="scommaaccent" unicode="&#x219;" horiz-adv-x="962" 
d="M490 -100q53 0 89.5 -36t36.5 -92t-36 -110l-117 -176h-121l78 176q-55 37 -55 100.5t36 100.5t89 37zM322 803q0 -53 59 -88t144 -58.5t170 -55.5t144.5 -103.5t59.5 -182.5q0 -158 -120 -240.5t-298 -82.5q-123 0 -240.5 40t-197.5 111l84 168q70 -61 171 -98
q102 -37 188 -37q184 0 184 117q0 61 -59.5 98t-143.5 59.5t-168 53.5t-142.5 101.5t-58.5 178.5q0 156 116 236t286 80q225 0 381 -111l-86 -174q-156 96 -314.5 96.5t-158.5 -108.5z" />
    <glyph glyph-name="Tcommaaccent" unicode="&#x21a;" horiz-adv-x="1185" 
d="M576 -100q53 0 89.5 -36t36.5 -92t-36 -110l-117 -176h-121l78 176q-55 37 -55 100.5t36 100.5t89 37zM1167 1434v-217h-454v-1217h-242v1217h-453v217h1149z" />
    <glyph glyph-name="tcommaaccent" unicode="&#x21b;" horiz-adv-x="833" 
d="M512 -100q53 0 90 -36t37 -92t-37 -110l-117 -176h-120l77 176q-55 37 -55 100.5t36 100.5t89 37zM522.5 -10q-133.5 0 -219.5 80t-86 237v565h-154v177h154v299h234v-299h321v-177h-321v-522q0 -82 28.5 -114.5t91 -32.5t160.5 47l60 -180q-135 -80 -268.5 -80z" />
    <glyph glyph-name="dotlessj" unicode="&#x237;" horiz-adv-x="561" 
d="M408 1090v-1139q0 -172 -88 -265q-88 -92 -242 -90t-264 72l59 172q70 -45 147 -48q152 -6 152 194v1104h236z" />
    <glyph glyph-name="circumflex" unicode="&#x2c6;" 
d="M678 1257h-193l-127 181l-127 -181h-192l211 289h217z" />
    <glyph glyph-name="caron" unicode="&#x2c7;" 
d="M20 1546h209l129 -190l129 190h209l-221 -307h-233z" />
    <glyph glyph-name="firsttonechinese" unicode="&#x2c9;" 
d="M621 1313h-523v170h523v-170z" />
    <glyph glyph-name="breve" unicode="&#x2d8;" 
d="M358 1243q-124 0 -204 81t-84 210h159q4 -59 40 -96t89 -37t89 37t40 96h160q-4 -129 -85 -210t-204 -81z" />
    <glyph glyph-name="dotaccent" unicode="&#x2d9;" 
d="M358 1544q58 0 98 -40t40 -102t-39 -102t-99 -40t-98 40q-39 40 -39 102t39 102t98 40z" />
    <glyph glyph-name="ring" unicode="&#x2da;" 
d="M358 1534q-57 0 -98 -39t-41 -92t41 -92t98 -39t99 39q41 39 41 92t-41 92q-42 39 -99 39zM358 1640q100 0 171 -70t71 -168q0 -97 -71 -167t-171 -70t-171 70t-71 167t71 168q71 70 171 70z" />
    <glyph glyph-name="ogonek" unicode="&#x2db;" 
d="M307 -215q0 -65 74 -65q39 0 90 65l68 -80q-74 -117 -195 -117q-66 0 -114 40t-48 120q0 111 123 277h121q-119 -160 -119 -240z" />
    <glyph glyph-name="tilde" unicode="&#x2dc;" 
d="M217 1552q61 0 138 -56t106 -56q78 0 78 100h149q0 -268 -186 -268q-68 0 -143 56t-103 56q-76 0 -76 -100h-151q0 268 188 268z" />
    <glyph glyph-name="hungarumlaut" unicode="&#x2dd;" 
d="M713 1473l-189 -226h-182l170 316zM375 1473l-189 -226h-182l170 316z" />
    <glyph glyph-name="commaaccent" unicode="&#x326;" horiz-adv-x="0" 
d="M221 -100q53 0 90 -36t37 -92t-37 -110l-116 -176h-121l78 176q-55 37 -55.5 100.5t35.5 100.5t89 37z" />
    <glyph glyph-name="Delta" unicode="&#x394;" horiz-adv-x="1511" 
d="M1169 190l-417 986l-418 -986h835zM1509 0h-1507l633 1434h248z" />
    <glyph glyph-name="pi" unicode="&#x3c0;" horiz-adv-x="1484" 
d="M1464 909h-301v-909h-196v909h-301l-103 -909h-196l100 909h-105q-86 0 -142 -48t-55 -124t54 -155l-164 -64q-73 119 -75 256t99 226t255 90h1130v-181z" />
    <glyph glyph-name="Wgrave" unicode="&#x1e80;" horiz-adv-x="2121" 
d="M1663 0h-248l-340 1118l-344 -1118h-250l-475 1434h260l348 -1166l347 1164l237 2l348 -1166l346 1166h250zM1198 1591h-209l-250 201l242 102z" />
    <glyph glyph-name="wgrave" unicode="&#x1e81;" horiz-adv-x="1828" 
d="M1442 0h-244l-276 807l-277 -807h-242l-401 1090h242l282 -857l275 857h243l277 -857l278 857h240zM1042 1247h-208l-250 201l241 102z" />
    <glyph glyph-name="Wacute" unicode="&#x1e82;" horiz-adv-x="2121" 
d="M1663 0h-248l-340 1118l-344 -1118h-250l-475 1434h260l348 -1166l347 1164l237 2l348 -1166l346 1166h250zM1393 1790l-250 -201h-209l217 303z" />
    <glyph glyph-name="wacute" unicode="&#x1e83;" horiz-adv-x="1828" 
d="M1442 0h-244l-276 807l-277 -807h-242l-401 1090h242l282 -857l275 857h243l277 -857l278 857h240zM1237 1446l-250 -201h-209l217 303z" />
    <glyph glyph-name="Wdieresis" unicode="&#x1e84;" horiz-adv-x="2121" 
d="M1663 0h-248l-340 1118l-344 -1118h-250l-475 1434h260l348 -1166l347 1164l237 2l348 -1166l346 1166h250zM1253 1886q53 0 88 -37t35 -93t-35 -93t-88 -37t-89 37t-36 93t36 93t89 37zM891 1886q53 0 88 -37t35 -93t-35 -93t-88 -37t-89 37t-36 93t36 93t89 37z" />
    <glyph glyph-name="wdieresis" unicode="&#x1e85;" horiz-adv-x="1828" 
d="M1442 0h-244l-276 807l-277 -807h-242l-401 1090h242l282 -857l275 857h243l277 -857l278 857h240zM1098 1542q53 0 88 -37t35 -93t-35 -93t-88 -37t-89 37t-36 93t36 93t89 37zM735 1542q53 0 88 -37t35 -93t-35 -93t-88 -37t-89 37t-36 93t36 93t89 37z" />
    <glyph glyph-name="Ygrave" unicode="&#x1ef2;" horiz-adv-x="1304" 
d="M776 0h-239v469l-535 965h244l409 -699l402 699h246l-527 -957v-477zM569 1591l-250 201l242 102l217 -303h-209z" />
    <glyph glyph-name="ygrave" unicode="&#x1ef3;" horiz-adv-x="1087" 
d="M248 -408q-141 0 -252 93l100 182q74 -53 142 -53q111 0 165 120l37 82l-450 1074h243l326 -826l303 826h236l-496 -1240q-102 -258 -354 -258zM674 1247h-209l-250 201l242 102z" />
    <glyph glyph-name="endash" unicode="&#x2013;" horiz-adv-x="829" 
d="M829 461h-829v162h829v-162z" />
    <glyph glyph-name="emdash" unicode="&#x2014;" horiz-adv-x="1415" 
d="M1415 461h-1415v162h1415v-162z" />
    <glyph glyph-name="quoteleft" unicode="&#x2018;" horiz-adv-x="438" 
d="M201 1030q-53 0 -90 36t-37 92t37 110l116 178h121l-78 -178q56 -36 56 -100t-36 -101t-89 -37z" />
    <glyph glyph-name="quoteright" unicode="&#x2019;" horiz-adv-x="438" 
d="M221 1434q53 0 90 -36t37 -92t-37 -110l-116 -176h-121l78 176q-56 36 -56 100t36 101t89 37z" />
    <glyph glyph-name="quotesinglbase" unicode="&#x201a;" horiz-adv-x="438" 
d="M221 248q53 0 90 -36t37 -93t-37 -111l-116 -176h-121l78 178q-56 36 -56 100t36 101t89 37z" />
    <glyph glyph-name="quotedblleft" unicode="&#x201c;" horiz-adv-x="606" 
d="M506 1030q-53 0 -90 36t-37 93t37 111l116 176h121l-78 -178q55 -36 55 -100t-35 -101q-36 -37 -89 -37zM201 1030q-53 0 -90 36t-37 93t37 111l116 176h121l-78 -178q56 -36 56 -100t-36 -101t-89 -37z" />
    <glyph glyph-name="quotedblright" unicode="&#x201d;" horiz-adv-x="681" 
d="M526 1436q53 0 90 -36t37 -93t-37 -111l-116 -176h-121l78 178q-55 36 -55 100t35 101q36 37 89 37zM221 1436q53 0 90 -36t37 -93t-37 -111l-116 -176h-121l78 178q-56 36 -56 100t36 101t89 37z" />
    <glyph glyph-name="quotedblbase" unicode="&#x201e;" horiz-adv-x="743" 
d="M526 248q53 0 90 -36t37 -93t-37 -111l-116 -176h-121l78 178q-55 36 -55 100t35 101q36 37 89 37zM221 248q53 0 90 -36t37 -93t-37 -111l-116 -176h-121l78 178q-56 36 -56 100t36 101t89 37z" />
    <glyph glyph-name="dagger" unicode="&#x2020;" horiz-adv-x="1097" 
d="M657 995h410v-217h-410v-1167h-223v1167h-403v217h403v437h223v-437z" />
    <glyph glyph-name="daggerdbl" unicode="&#x2021;" horiz-adv-x="1097" 
d="M657 778v-473h410v-215h-410v-479h-223v479h-403v215h403v473h-403v217h403v437h223v-437h410v-217h-410z" />
    <glyph glyph-name="bullet" unicode="&#x2022;" horiz-adv-x="575" 
d="M287 750q84 0 139 -56t55 -145t-55 -147t-138 -58t-138 58q-56 58 -56 146t54 146q54 56 139 56z" />
    <glyph glyph-name="ellipsis" unicode="&#x2026;" horiz-adv-x="1245" 
d="M1028 242q53 0 88 -36t35 -93t-35 -95t-88 -36q-53 0 -88 36t-35 94t35 94t88 36zM623 242q53 0 88 -36t35 -93t-35 -95q-35 -36 -88 -36t-88 36t-35 94t35 94t88 36zM217 242q53 0 88 -36t35 -93t-35 -95t-88 -36q-53 0 -88 36t-35 94t35 94t88 36z" />
    <glyph glyph-name="perthousand" unicode="&#x2030;" horiz-adv-x="2908" 
d="M2449 713q-106 0 -163 -76q-58 -76 -58 -214t58 -213t163 -75q106 0 165 76q58 76 59 213q0 137 -59 213t-165 76zM1536 713q-106 0 -164 -76t-57 -214q0 -138 57 -213q58 -75 164 -75t165 76q58 76 58 213t-58 213q-59 76 -165 76zM2449 850q175 0 277 -114t102 -314
t-101 -312q-101 -114 -277 -114t-278 114q-101 114 -101 314t101 312q101 114 277 114zM1536 850q176 0 278 -114t101 -314q0 -200 -101 -312q-102 -114 -278 -114t-278 114q-101 114 -101 314q-1 200 101 312q102 114 278 114zM457 1298q-106 0 -164 -74q-57 -75 -57 -213
t57 -214t163 -76t166 77q58 77 58 214t-58 212q-59 74 -165 74zM348 0l1055 1434h225l-1053 -1434h-227zM457 1438q176 0 277 -114q102 -114 102 -314t-102 -314t-277 -114q-176 0 -278 114q-101 115 -101 315q0 199 102 313t277 114z" />
    <glyph glyph-name="guilsinglleft" unicode="&#x2039;" horiz-adv-x="565" 
d="M262 532l219 -356h-196l-238 356l238 357h196z" />
    <glyph glyph-name="guilsinglright" unicode="&#x203a;" horiz-adv-x="589" 
d="M375 535l-219 356h196l238 -356l-238 -359h-196z" />
    <glyph glyph-name="fraction" unicode="&#x2044;" horiz-adv-x="163" 
d="M-567 0l1054 1434h226l-1053 -1434h-227z" />
    <glyph glyph-name="Euro" unicode="&#x20ac;" horiz-adv-x="1617" 
d="M1006 -10q-248 0 -441 135t-266 356h-223v131h192q-8 48 -8 108t8 107h-192v131h225q76 215 270 349q195 133 445 133q152 0 296 -60t247 -161l-140 -177q-172 182 -401 183q-145 0 -266 -73t-187 -194h514v-131h-563q-10 -57 -10 -109t12 -106h561v-131h-514
q66 -121 187 -193t266 -73q221 0 401 170l142 -160q-109 -109 -256 -172t-299 -63z" />
    <glyph glyph-name="literSign" unicode="&#x2113;" horiz-adv-x="956" 
d="M655 1303q-119 0 -163 -254l-68 -400q139 123 227 267t88 268q0 57 -22 88q-23 31 -62 31zM648 1446q116 0 176 -68t61 -190q0 -334 -492 -739q-23 -141 6 -209t117 -68q131 0 275 174l81 -98q-170 -256 -409 -256q-264 0 -264 336l-105 -72l-41 115l166 121l86 536
q39 210 133 314t210 104z" />
    <glyph glyph-name="trademark" unicode="&#x2122;" horiz-adv-x="1814" 
d="M1708 573h-158v609l-247 -520h-115l-246 520v-609h-160v861h201l262 -547l262 547h201v-861zM666 1282h-252v-709h-174v709h-250v152h676v-152z" />
    <glyph glyph-name="Omega" unicode="&#x2126;" horiz-adv-x="1806" 
d="M903 1446q317 0 527 -195t210 -489q0 -154 -78 -310t-202 -247h428v-205h-680v190q137 82 227 238t90 313q0 213 -148 351q-147 138 -373 139q-226 0 -374 -138t-147 -352q0 -157 89 -313t228 -240v-188h-682v205h431q-123 92 -202 248t-79 309q0 296 209 490t526 194z
" />
    <glyph glyph-name="estimated" unicode="&#x212e;" horiz-adv-x="1656" 
d="M1266 682v338q0 23 -19 41q-174 174 -418 174t-417 -180q-18 -18 -19 -41v-332q0 -10 10 -10h852q11 0 11 10zM1516 639h-1113q-10 0 -10 -8v-336q0 -18 17 -39q170 -182 421 -182q129 0 245 54t196 148h100q-94 -112 -237 -176t-306 -63q-285 0 -485 180t-201 436
q0 255 201 437q202 182 486 182t485 -181t201 -438v-14z" />
    <glyph glyph-name="oneeighth" unicode="&#x215b;" horiz-adv-x="1708" 
d="M1291 381q-87 0 -135 -34t-48 -95t48 -96t135 -35t135 34t48 96t-48 96t-135 34zM1448 623q0 53 -41 83t-116 31q-75 -1 -115 -31t-41 -83q1 -115 157 -115t156 115zM991 637q0 99 81 157t219 58t220 -59t82 -171t-125 -169q80 -29 124 -85t44 -130q0 -113 -92 -179
q-92 -65 -252 -65t-253 64t-93 178q0 74 47 131t129 86q-131 59 -131 184zM102 0l1055 1434h225l-1052 -1434h-228zM203 588v704h-170v142h342v-846h-172z" />
    <glyph glyph-name="threeeighths" unicode="&#x215c;" horiz-adv-x="1835" 
d="M1418 381q-87 0 -135 -34t-48 -95t48 -96t135 -35t135 34q49 34 49 96t-48 96t-136 34zM1575 623q0 53 -41 83t-116 31q-76 -1 -116 -31t-40 -83q0 -115 156 -115t157 115zM1118 637q0 99 81 157t219 58t220 -59t82 -171t-125 -169q80 -29 124 -85t44 -130
q0 -113 -92 -179q-92 -65 -252 -65t-253 64t-93 178q0 74 47 131t129 86q-131 59 -131 184zM317 711q80 0 125 37t45 100q0 127 -172 127h-127v94l230 234h-355v127h551v-101l-243 -246l45 -4q108 -10 174 -70t66 -169t-90 -185q-90 -75 -252 -75t-291 94l71 135
q98 -98 223 -98zM229 0l1055 1434h225l-1052 -1434h-228z" />
    <glyph glyph-name="fiveeighths" unicode="&#x215d;" horiz-adv-x="1871" 
d="M1455 381q-87 0 -135 -34t-48 -95t48 -96t135 -35t135 34t48 96t-48 96t-135 34zM1612 623q0 53 -41 83t-116 31q-75 -1 -116 -31t-41 -83q0 -115 157 -115t157 115zM1155 637q0 99 81 157t219 58t220 -59t82 -171t-125 -169q80 -29 124 -85t44 -130q0 -113 -92 -179
q-92 -65 -252 -65t-253 64t-93 178q0 74 47 131t129 86q-131 59 -131 184zM266 0l1055 1434h225l-1052 -1434h-228zM274 1296v-196q47 12 109 12q145 0 232 -66t87 -187q0 -122 -91 -200q-91 -77 -255 -77t-309 98l70 135q106 -102 233 -102q80 0 125 38t45 102t-45 97
t-155 33t-203 -16v467h549v-138h-392z" />
    <glyph glyph-name="seveneighths" unicode="&#x215e;" horiz-adv-x="1804" 
d="M1387 381q-87 0 -135 -34t-48 -95t48 -96t136 -35t135 34q48 34 48 96t-48 96q-49 34 -136 34zM1388 737q-75 -1 -116 -31t-41 -83q0 -115 157 -115t156 115q0 53 -40 83t-116 31zM1387 852q139 0 221 -59t82 -171t-125 -169q80 -29 124 -85t44 -130q-1 -113 -93 -179
q-92 -65 -252 -65t-252 64q-93 64 -94 178q0 74 48 131t129 86q-131 59 -132 184q0 99 81 157t219 58zM199 0l1054 1434h226l-1053 -1434h-227zM217 1296v-125h-151v263h653v-123l-342 -723h-182l337 708h-315z" />
    <glyph glyph-name="partialdiff" unicode="&#x2202;" horiz-adv-x="1259" 
d="M887 470q0 110 -83 188t-219 77q-136 1 -211 -69t-75 -196t79 -199t217 -73t215 81t77 191zM553 1444q279 0 443 -203t165 -540q-1 -337 -155 -524t-428 -187q-229 0 -367 130q-137 130 -137 344t126 339t337 125q147 0 248 -67t141 -181q18 266 -84 414t-294 147
q-192 0 -339 -111l-94 185q202 129 438 129z" />
    <glyph glyph-name="product" unicode="&#x220f;" horiz-adv-x="1536" 
d="M1348 -397h-236v1716h-688v-1716h-236v1917h1160v-1917z" />
    <glyph glyph-name="summation" unicode="&#x2211;" horiz-adv-x="1251" 
d="M1225 1305h-865l568 -676l-572 -695h889v-217h-1179v187l602 723l-586 706v189h1143v-217z" />
    <glyph glyph-name="minus" unicode="&#x2212;" horiz-adv-x="1019" 
d="M948 584h-876v161h876v-161z" />
    <glyph glyph-name="divisionslash" unicode="&#x2215;" horiz-adv-x="677" 
d="M158 -240h-201l649 1911h201z" />
    <glyph glyph-name="bulletoperator" unicode="&#x2219;" horiz-adv-x="575" 
d="M287 750q84 0 139 -56t55 -145t-55 -147t-138 -58t-138 58q-56 58 -56 146t54 146q54 56 139 56z" />
    <glyph glyph-name="radical" unicode="&#x221a;" horiz-adv-x="1411" 
d="M23 618v199h413l275 -876l469 1595h225l-569 -1851h-252l-310 933h-251z" />
    <glyph glyph-name="infinity" unicode="&#x221e;" horiz-adv-x="1792" 
d="M476 377q110 0 187 62t150 179q-74 115 -150 177q-77 61 -187 61t-175 -68t-65 -172t65 -172q65 -67 175 -67zM1316 379q110 -1 175 67q66 68 65 172q0 104 -65 173q-67 67 -177 67t-187 -62t-148 -180q75 -115 151 -176t186 -61zM1332 1030q163 0 276 -118
q112 -118 112 -295t-112 -295t-275 -117q-162 -1 -257 71t-179 203q-82 -131 -178 -203t-259 -72t-276 119q-112 119 -112 295t112 294q113 118 275 118t257 -72t179 -202q82 130 178 202t259 72z" />
    <glyph glyph-name="integral" unicode="&#x222b;" horiz-adv-x="700" 
d="M422 1306q0 -128 22 -556q22 -430 23 -566q0 -242 -71 -344t-238 -102q-100 0 -174 43l30 164q66 -33 117 -33q86 0 123 59t37 195t-24 564q-24 427 -23 548q0 242 70 344q71 102 237 102q72 1 158 -38l-29 -164q-51 23 -102 22q-84 0 -120 -55t-36 -183z" />
    <glyph glyph-name="approxequal" unicode="&#x2248;" horiz-adv-x="1019" 
d="M334 596q72 0 173 -58t138 -59q80 0 80 103h162q0 -287 -199 -287q-76 0 -175 58t-134 59q-80 0 -80 -103h-164q0 287 199 287zM334 1047q72 -1 173 -59t138 -58q80 0 80 104h162q0 -287 -199 -286q-76 0 -175 58t-134 58q-80 0 -80 -104h-164q0 287 199 287z" />
    <glyph glyph-name="notequal" unicode="&#x2260;" horiz-adv-x="1019" 
d="M948 530v-161h-452l-97 -306h-180l96 306h-243v161h295l84 269h-379v162h430l94 294h180l-94 -294h266v-162h-317l-84 -269h401z" />
    <glyph glyph-name="lessequal" unicode="&#x2264;" horiz-adv-x="1019" 
d="M948 41h-876v164h876v-164zM948 1098l-719 -295l719 -295v-178l-876 370v203l876 373v-178z" />
    <glyph glyph-name="greaterequal" unicode="&#x2265;" horiz-adv-x="1019" 
d="M948 41h-876v164h876v-164zM72 516l719 297l-719 295v178l876 -373v-202l-876 -371v176z" />
    <glyph glyph-name="lozenge" unicode="&#x25ca;" horiz-adv-x="1097" 
d="M289 676l258 -379l262 379l-260 379zM1026 676l-479 -713l-475 713l477 708z" />
    <glyph glyph-name="zero.dnom" horiz-adv-x="915" 
d="M457 713q-105 0 -163 -76t-58 -214t57 -213t163 -75t166 76q58 76 58 213t-58 213q-59 76 -165 76zM457 850q176 0 277 -114q102 -114 102 -314t-102 -312q-102 -114 -277 -114q-176 0 -278 114q-101 114 -101 314t102 312q102 114 277 114z" />
    <glyph glyph-name="one.dnom" horiz-adv-x="536" 
d="M203 0v707h-170v139h342v-846h-172z" />
    <glyph glyph-name="two.dnom" horiz-adv-x="784" 
d="M391 852q127 0 206 -58t79 -157q0 -121 -164 -279l-221 -221h422v-137h-637v117l321 327q100 100 101 170q0 45 -35 71t-98 26q-117 0 -240 -107l-68 125q158 123 334 123z" />
    <glyph glyph-name="three.dnom" horiz-adv-x="727" 
d="M312 -6q-164 0 -289 94l71 133q96 -96 223 -96q80 0 125 37t45 98q0 127 -172 127h-127v94l230 234h-355v129h551v-101l-243 -245l45 -6q108 -10 174 -70t66 -170t-90 -184t-254 -74z" />
    <glyph glyph-name="four.dnom" horiz-adv-x="806" 
d="M475 326v209h162v-209h125v-127h-125v-199h-162v199h-418v120l293 527h164l-285 -520h246z" />
    <glyph glyph-name="five.dnom" horiz-adv-x="772" 
d="M274 711v-199q53 14 109 14q145 0 232 -66t87 -188t-91 -200t-251 -78t-313 98l70 135q109 -102 233 -102q80 0 125 38t45 102q0 65 -45 99t-157 34t-201 -19v467h549v-135h-392z" />
    <glyph glyph-name="six.dnom" horiz-adv-x="821" 
d="M598 280q0 70 -42 106t-119 36t-123 -41t-46 -103t43 -103q43 -42 121 -42t122 39t44 108zM429 -6q-157 0 -254 110t-97 308q0 200 106 320t269 120q164 0 282 -66l-65 -122q-84 53 -199 53t-175 -78t-50 -219q51 129 233 129q127 0 203 -74q76 -75 76 -201t-86 -203
t-243 -77z" />
    <glyph glyph-name="seven.dnom" horiz-adv-x="765" 
d="M217 711v-125h-151v260h653v-123l-342 -723h-182l337 711h-315z" />
    <glyph glyph-name="eight.dnom" horiz-adv-x="833" 
d="M417 381q-87 0 -135 -34t-48 -95t48 -96t135 -35t135 34t48 96t-48 96t-135 34zM417 737q-75 -1 -116 -31t-41 -83q0 -115 157 -115t156 115q-1 53 -41 83t-115 31zM117 637q0 99 81 157t219 58t220 -59t82 -171t-125 -169q80 -29 124 -85t44 -130q0 -113 -92 -179
q-92 -65 -252 -65t-253 64t-93 178q0 74 47 131t129 86q-131 59 -131 184z" />
    <glyph glyph-name="nine.dnom" horiz-adv-x="825" 
d="M229 567q0 -67 41 -105t118 -38t123 41t46 101t-42 104t-121 43q-79 0 -122 -39t-43 -107zM373 -6q-163 0 -283 65l68 123q82 -53 198 -53t175 78q60 78 51 219q-55 -131 -234 -131q-127 0 -204 75q-76 76 -76 202t86 203t242 77t254 -111t98 -309t-106 -318t-269 -120z
" />
    <glyph glyph-name="zero.numr" horiz-adv-x="915" 
d="M457 1298q-106 0 -164 -74q-57 -75 -57 -213t57 -214t163 -76t166 77q58 77 58 214t-58 212q-59 74 -165 74zM457 1438q176 0 277 -114q102 -114 102 -314t-102 -314t-277 -114q-176 0 -278 114q-101 115 -101 315q0 199 102 313t277 114z" />
    <glyph glyph-name="one.numr" horiz-adv-x="536" 
d="M203 588v704h-170v142h342v-846h-172z" />
    <glyph glyph-name="two.numr" horiz-adv-x="784" 
d="M391 1440q127 0 206 -58t79 -157q0 -121 -164 -279l-221 -223h422v-135h-637v114l321 330q100 96 101 168q0 96 -125 96t-248 -106l-68 127q162 123 334 123z" />
    <glyph glyph-name="three.numr" horiz-adv-x="727" 
d="M317 711q80 0 125 37t45 100q0 127 -172 127h-127v94l230 234h-355v127h551v-101l-243 -246l45 -4q108 -10 174 -70t66 -169t-90 -185q-90 -75 -252 -75t-291 94l71 135q98 -98 223 -98z" />
    <glyph glyph-name="four.numr" horiz-adv-x="806" 
d="M475 913v207h162v-207h125v-127h-125v-198h-162v198h-418v121l293 527h164l-285 -521h246z" />
    <glyph glyph-name="five.numr" horiz-adv-x="772" 
d="M274 1296v-196q47 12 109 12q145 0 232 -66t87 -187q0 -122 -91 -200q-91 -77 -255 -77t-309 98l70 135q106 -102 233 -102q80 0 125 38t45 102t-45 97t-155 33t-203 -16v467h549v-138h-392z" />
    <glyph glyph-name="six.numr" horiz-adv-x="821" 
d="M437 1008q-77 0 -123 -41t-46 -101t43 -103q43 -42 121 -42t122 39q44 38 44 106t-42 105t-119 37zM467 1440q143 0 268 -66l-65 -125q-84 53 -199 53t-175 -77q-60 -78 -50 -219q51 131 233 131q127 0 203 -74t76 -202t-86 -205q-86 -76 -243 -76t-254 110t-97 310
q0 198 105 319q106 121 284 121z" />
    <glyph glyph-name="seven.numr" horiz-adv-x="765" 
d="M217 1296v-125h-151v263h653v-123l-342 -723h-182l337 708h-315z" />
    <glyph glyph-name="eight.numr" horiz-adv-x="833" 
d="M417 969q-87 0 -135 -34t-48 -96q0 -63 48 -97t136 -33q182 0 182 131q0 61 -48 95t-135 34zM417 1323q-157 0 -157 -114t158 -113q74 0 114 30t41 82q1 115 -156 115zM117 1225q0 99 81 157t219 58t220 -60t82 -170q0 -112 -125 -170q78 -29 123 -85t45 -130
q0 -113 -93 -179t-252 -66t-252 66t-93 177q0 74 47 131t129 86q-131 59 -131 185z" />
    <glyph glyph-name="nine.numr" horiz-adv-x="825" 
d="M394 1298q-79 0 -122 -38t-43 -106q0 -70 41 -106t118 -36t123 41t46 101t-42 102t-121 42zM376 580q-160 0 -286 67l68 123q82 -53 198 -53t175 78q60 78 51 219q-55 -131 -234 -131q-127 -1 -204 73q-76 74 -76 202t86 205t242 77t254 -111t98 -309t-106 -318
q-106 -122 -266 -122z" />
    </font>
</defs>
</svg>
